<?xml version="1.0" standalone="no"?><svg xmlns="http://www.w3.org/2000/svg"><metadata>Created by youziku.com at Wed, 12 Feb 2014 11:40:17 GMT</metadata><defs><font id="zhimang-xing" horiz-adv-x="1000" ><font-face font-family="zhimang-xing" font-weight="400" font-stretch="normal" font-style="normal" units-per-em="1000" panose-1="2 1 6 0 3 1 1 1 1 1" ascent="860" descent="-140" bbox="-76.2705 -224 1024 872" underline-thickness="40" underline-position="-60" unicode-range="U+0020-FFE5"  /><missing-glyph /><glyph glyph-name="" unicode="" /><glyph glyph-name="space" unicode=" "  horiz-adv-x="500" /><glyph glyph-name="one" unicode="1" d="M206 380c8 21 23 36 46 40c55 9 24 -37 7 -64c-49 -76 -125 -167 -129 -296c-1 -49 -4 -80 -6 -91s-8 -18 -18 -21s-15 44 -15 138s38 192 115 294z" horiz-adv-x="415" /><glyph glyph-name="two" unicode="2" d="M87 377c77 12 155 -48 137 -139c-10 -50 -27 -108 -60 -171c47 45 90 73 124 92c68 37 79 -20 36 -39c-81 -37 -176 -150 -250 -170c-9 -3 -14 3 -14 18c18 88 129 183 120 290c-4 47 -31 57 -73 54c-25 -7 -41 34 -40 54c1 10 7 14 20 11z" horiz-adv-x="415" /><glyph glyph-name="three" unicode="3" d="M189 417c61 0 156 -55 117 -127c-7 -13 -21 -36 -40 -67c103 -6 87 -50 63 -111c-13 -35 -78 -103 -113 -136c-18 -18 -34 -28 -48 -30s-20 0 -20 9c17 38 95 97 117 143c17 35 30 55 30 64c-7 34 -158 -14 -99 61c15 19 77 72 52 120c-22 23 -64 32 -76 63
c-2 6 3 11 17 11z" horiz-adv-x="415" /><glyph glyph-name="four" unicode="4" d="M216 453c27 26 51 6 26 -47c-15 -32 -48 -99 -103 -198c74 50 155 81 229 122c32 17 31 8 -2 -28s-119 -90 -257 -163c-30 -71 -50 -125 -71 -188c-7 -20 -14 -30 -20 -30c-4 82 15 112 40 212c-40 2 -81 102 -67 156c17 69 24 85 61 121c31 19 47 -24 16 -48
c-20 -15 -28 -49 -33 -96c7 -46 20 -75 39 -87c50 105 97 196 142 274z" horiz-adv-x="414" /><glyph glyph-name="five" unicode="5" d="M283 393c52 -1 54 1 77 -21c20 -19 21 -31 -22 -30c-23 0 -58 -9 -106 -26s-72 -51 -70 -102s17 -88 44 -109c83 -66 -16 -155 -85 -161c-25 -2 -47 5 -59 26c-31 52 25 35 70 30c23 3 41 18 55 43c-55 57 -78 115 -69 175s14 99 16 116s14 27 32 30s57 12 117 29z" horiz-adv-x="415" /><glyph glyph-name="A" unicode="A" d="M307 242c35 14 72 -2 81 -28c6 -14 2 -20 -10 -17s-30 4 -55 1c20 -66 33 -110 39 -131c11 -43 -1 -80 -38 -83c-19 -2 -40 14 -63 50s-49 68 -78 97c-25 3 -48 8 -71 17c-31 -77 -25 -130 -44 -190c-6 -11 -16 -18 -29 -20s-9 38 3 126c15 114 93 290 121 366
c4 9 15 18 36 26c5 0 12 -9 22 -27c26 -49 65 -123 86 -187zM192 369c-22 -63 -44 -126 -66 -191c47 21 91 37 134 50c-15 60 -38 107 -68 141zM279 185c-35 -11 -62 -21 -80 -30c32 -47 66 -88 114 -114c-7 51 -18 99 -34 144z" horiz-adv-x="415" /><glyph glyph-name="C" unicode="C" d="M195 152c2 20 14 37 27 50c-72 -4 -109 -44 -147 -94c-23 -31 -27 -65 -13 -100c86 -39 124 -5 197 40c43 27 76 51 99 71c49 42 83 44 23 -24c-31 -35 -81 -76 -152 -121s-140 -42 -207 7c-53 105 51 198 100 235c31 23 71 33 120 33c61 -20 22 -33 0 -67
c-12 -19 -25 -30 -34 -34s-13 -3 -13 4z" horiz-adv-x="414" /><glyph glyph-name="M" unicode="M" d="M357 347c16 15 30 -2 43 -49c27 -100 2 -262 -13 -346c-2 -9 -9 -12 -23 -11s-19 22 -17 63c3 79 24 174 7 243c-3 13 -9 13 -20 0c-21 -14 -47 -137 -84 -137c-17 0 -33 1 -46 10s-36 42 -67 99c-43 -104 -55 -146 -87 -229c-7 -17 -31 -35 -45 -16c-15 20 -2 66 11 82
c27 34 59 148 70 208c11 61 2 67 38 74c22 5 25 -10 29 -28c9 -35 38 -85 61 -113c16 -20 30 -13 46 23s47 79 97 127z" horiz-adv-x="414" /><glyph glyph-name="P" unicode="P" d="M133 441c12 30 26 39 39 27c33 -27 37 9 80 9c22 0 46 -12 73 -37s27 -58 9 -100c-28 -63 -102 -133 -155 -158c-17 -8 -38 -10 -63 -11c-3 -56 2 -109 12 -159s9 -75 -2 -72c-57 16 -41 42 -60 160c-14 87 11 202 67 341zM243 425c-30 -13 -56 -30 -77 -51
c-25 -47 -41 -101 -48 -161c80 11 122 55 166 124c29 46 15 75 -41 88z" horiz-adv-x="414" /><glyph glyph-name="Q" unicode="Q" d="M216 385c40 0 68 -19 84 -57s10 -98 -17 -181c32 -39 93 -88 107 -138c5 -19 -1 -26 -18 -19c-42 18 -85 79 -123 108c-39 -66 -59 -120 -121 -148c-60 -27 -95 29 -104 86c-12 77 78 280 123 310c32 21 53 39 69 39zM230 332c-8 -55 -5 -87 19 -143
c22 68 16 116 -19 143zM75 54c0 -25 1 -63 30 -57c52 10 92 96 117 141c-31 51 -46 107 -47 166c-71 -95 -100 -148 -100 -250z" horiz-adv-x="415" /><glyph glyph-name="R" unicode="R" d="M231 466c84 -9 93 -42 113 -114c10 -35 -34 -94 -127 -176c32 -39 105 -108 141 -136c26 -20 4 -53 -22 -38c-57 34 -108 78 -166 140c-47 -25 -69 -58 -67 -98s7 -65 15 -76s4 -23 -14 -34s-34 11 -50 64s-2 132 29 241c19 66 -4 153 31 189c6 6 16 -5 30 -32
c27 40 56 63 87 70zM231 413c-54 -49 -85 -112 -94 -188c13 0 27 -6 40 -19c33 31 62 59 85 83s31 54 22 90c-13 27 -31 38 -53 34z" horiz-adv-x="414" /><glyph glyph-name="S" unicode="S" d="M328 449c16 3 24 -49 14 -60c-34 -11 -94 -33 -97 -84c-13 -40 108 -96 101 -133c2 -20 -11 -53 -40 -100s-70 -80 -121 -98s-85 -30 -101 -34s-23 -4 -23 0s24 19 73 44s90 61 122 110s30 90 -11 118c-59 41 -75 86 -50 146c28 35 86 81 133 91z" horiz-adv-x="416" /><glyph glyph-name="T" unicode="T" d="M327 395c22 3 51 -12 37 -40c-15 -30 -42 -16 -76 -30c-20 -85 -32 -105 -40 -205c-4 -49 -11 -90 -20 -123s-17 -50 -24 -50s-10 21 -7 63c9 108 -3 216 37 291c-58 -31 -97 -56 -118 -71c-34 -24 -41 -40 -60 -6c-7 13 14 35 61 65s117 65 210 106z" horiz-adv-x="415" /><glyph glyph-name="U" unicode="U" d="M272 354c27 10 41 -1 41 -24c0 -53 -23 -148 -1 -216c25 -77 22 -82 64 -110c28 -19 33 -30 -20 -36c-65 -7 -107 139 -104 206c-65 -121 -106 -191 -128 -208c-51 -41 -81 -32 -98 47c-13 58 7 171 7 212c0 17 27 16 39 9c9 -4 10 -24 6 -60s-6 -81 -6 -134s18 -54 50 0
c47 78 101 150 120 230c5 20 13 48 30 84z" horiz-adv-x="415" /><glyph glyph-name="a" unicode="a" d="M204 263c59 2 117 -59 88 -127c-13 -30 -41 -78 -38 -120c3 -38 50 -20 78 -20c14 0 15 -9 6 -27s-32 -25 -70 -23s-57 23 -57 63c-27 -27 -57 -47 -93 -61s-53 17 -52 96s47 152 138 219zM191 189c-41 -29 -62 -74 -73 -127c-4 -22 -1 -42 10 -60c27 19 52 41 76 67v13
c-36 1 -41 45 -23 71c7 11 10 23 10 36z" horiz-adv-x="415" /><glyph glyph-name="d" unicode="d" d="M324 23c-30 0 -99 47 -83 87c-27 -41 -56 -79 -87 -114c-9 -24 -81 -89 -93 -27c-23 115 37 233 99 307c22 27 52 25 88 -6c18 71 39 127 60 169c13 27 25 34 40 21c30 -26 9 -47 0 -76c-15 -48 -60 -133 -60 -212c0 -84 11 -94 47 -119c16 -12 21 -30 -11 -30zM174 210
c-49 -58 -74 -129 -74 -214c36 35 70 80 101 133c-40 13 -36 44 -27 81z" horiz-adv-x="414" /><glyph glyph-name="e" unicode="e" d="M204 262c25 10 57 -11 53 -40c5 -43 -13 -81 -53 -114s-67 -55 -80 -64c-11 -13 -10 -27 6 -36c35 -20 72 -8 108 30s65 61 90 70s30 -1 14 -27c-20 -33 -165 -203 -259 -106c-30 65 -45 89 -11 149c28 51 87 101 132 138zM197 189c-17 -18 -41 -47 -71 -86
c41 46 58 45 71 86z" horiz-adv-x="415" /><glyph glyph-name="g" unicode="g" d="M157 367c88 7 79 -95 40 -141c7 -11 12 -21 13 -30c54 47 92 80 114 100s36 30 41 28s2 -10 -7 -24c-32 -44 -98 -99 -130 -157c4 -134 -52 -262 -138 -306c-50 -8 -52 34 -50 95c3 89 80 165 127 217l-13 27c-35 -30 -89 -42 -98 10c-16 88 50 149 101 181zM167 309
c-43 -24 -64 -61 -64 -110c38 15 78 55 64 110zM180 92c-66 -67 -98 -136 -96 -207c62 63 94 132 96 207z" horiz-adv-x="415" /><glyph glyph-name="n" unicode="n" d="M171 193c83 -3 77 -84 73 -177c45 29 80 56 107 80s36 25 27 3c-16 -43 -87 -114 -132 -129c-61 -21 -54 41 -52 100c3 67 -6 59 -39 38c-20 -13 -71 -130 -81 -150c-14 -28 -36 -9 -44 8c-12 16 81 185 86 188c9 12 28 26 55 39z" horiz-adv-x="413" /><glyph glyph-name="uni4E0E" unicode="&#x4E0E;" d="M447 486c40 -13 19 67 16 88c-6 36 10 15 31 2c22 -14 27 -27 40 -38c7 16 107 32 121 7c23 -24 19 -28 -13 -40c-45 -17 -107 -47 -118 -106c-13 -68 -12 -63 41 -33c40 23 36 24 93 24c55 0 89 -12 100 -35c7 -33 27 -223 -2 -260c-16 -47 -32 -64 -72 -87
c-14 -13 -159 2 -184 6c-59 10 -149 82 -204 38c-36 -28 -63 12 -66 50c-2 18 1 24 14 23c80 -6 162 42 220 73c-29 50 -46 77 -23 143c22 62 27 65 -5 108c-18 24 -28 36 11 37zM678 259c0 33 2 53 -8 66c-25 -4 -116 -63 -132 -77c-25 -22 -35 -34 -30 -37
c27 18 136 22 128 -25c-5 -32 -24 -22 -71 -27c-36 -4 -135 -38 -140 -66c52 -33 186 -51 221 9c18 31 32 82 32 157z" /><glyph glyph-name="uni4E13" unicode="&#x4E13;" d="M483 573c-7 0 -23 -56 -37 -48c-11 -3 -63 20 -61 29c3 15 123 56 114 94c5 29 -12 28 -13 50c0 8 3 11 10 7c22 -12 52 -32 77 -38c72 -17 106 -22 73 -61c-12 -13 -26 -23 -44 -26c-37 -7 -61 -59 -63 -112c31 -4 66 17 73 30c24 45 106 18 151 11c29 -5 52 -17 52 -46
c0 -19 -2 -18 -22 -20c-74 -8 -189 -40 -240 -67c-27 -14 -35 -92 -30 -128c47 4 93 72 162 54c50 2 75 -31 93 -59c6 -9 5 -79 0 -91c-25 -58 -70 -98 -127 -130c-34 -18 -30 -14 -36 -62c-14 -111 -77 -83 -103 7c-10 34 -43 87 -16 93c75 -29 172 46 204 94
c9 14 8 63 -4 71c-9 7 -24 6 -44 -2c-26 -4 -96 -70 -115 -74c-13 0 -21 -24 -38 -21c-25 4 -56 -68 -83 -32c-4 3 -21 58 -19 74c20 20 66 86 58 129c-54 -8 -102 -70 -177 -51c-26 7 -84 22 -93 38c0 3 8 5 23 9c47 12 168 79 222 108c51 27 46 20 50 81c2 30 5 65 3 89z
" /><glyph glyph-name="uni4E2D" unicode="&#x4E2D;" d="M472 640c-23 12 3 44 22 33c19 -10 81 -33 78 -65c8 -16 -17 -49 -10 -61c24 -4 119 32 152 12c59 -16 102 -47 49 -90c-26 -21 -113 -92 -128 -118c12 -21 81 -18 68 -63c-7 -24 -10 -19 -40 -23c-38 -5 -99 -20 -118 -40c-20 -21 -12 -259 -44 -296
c-7 -15 -55 -10 -62 -3c-5 13 20 40 17 62c2 22 -4 179 -12 193c-2 10 -26 6 -44 2c-44 -11 -71 1 -80 34c-5 17 -6 27 -23 27c-23 0 -74 89 -79 108c-6 22 -10 66 5 76c23 -11 57 -75 87 -88c21 -15 31 -28 31 -38c-1 -15 16 -26 33 -19c16 14 92 50 83 93v28
c-53 -8 -120 -10 -144 19c-19 24 -5 26 26 30c24 3 113 36 120 53c2 -3 26 128 13 134zM615 486c-26 5 -80 -6 -75 -40c4 -34 19 -12 46 8c21 16 29 28 29 32z" /><glyph glyph-name="uni4E3B" unicode="&#x4E3B;" d="M420 118c-6 43 -68 35 -68 86c0 57 129 9 129 85c0 60 -9 52 -68 59c-45 5 -53 3 -79 23c-26 21 -33 32 -22 34c62 -9 142 30 190 41c43 10 52 33 93 26c39 -7 128 -7 105 -63c-10 -24 -4 -22 -37 -20c-22 8 -138 -7 -140 -23c2 -15 95 -100 108 -105
c35 -24 37 -30 8 -58c-54 -50 -69 -39 -68 -126c110 13 204 35 246 -39c-9 -23 -21 -33 -61 -20c-46 14 -231 3 -267 -12c-85 -15 -179 -52 -276 -55c-8 0 -36 38 -29 45c2 5 11 8 25 8c6 -11 226 104 211 114zM364 38c18 -1 82 14 90 23c14 16 -7 15 -20 11
c-47 -15 -71 -26 -72 -33c-1 -1 -1 -1 2 -1zM474 616c-13 19 4 30 15 30c3 -1 15 -5 38 -13c41 -15 65 -33 70 -54c7 -28 -38 -46 -61 -22c-17 10 -33 15 -47 15c-44 1 3 18 -15 44z" /><glyph glyph-name="uni4E48" unicode="&#x4E48;" d="M341 518c2 45 39 39 65 7c26 -31 25 -73 -5 -125c-36 -62 -37 -69 -86 -109c-40 -33 -46 -41 -67 9c-13 31 -13 52 0 63c7 2 102 137 93 155zM531 560c-10 12 8 17 26 14c53 -7 110 -43 102 -103c-6 -17 -20 -60 -32 -68c-13 -5 -33 -48 -44 -57
c-27 -34 -89 -104 -95 -140c-6 -37 47 -34 82 -46c42 -15 68 -3 78 31c10 33 10 53 1 58c-21 34 9 30 64 -3c37 -22 54 -40 47 -83c-7 -19 -56 -66 -75 -89c-28 8 -72 54 -95 33c-9 -8 -20 -10 -37 -8c-46 6 -145 -35 -170 -60c-12 -17 -95 -23 -115 -8c-6 4 -45 83 -19 96
c17 15 37 5 55 22c86 81 162 189 224 283c26 39 35 69 39 86c5 25 -17 35 -36 42z" /><glyph glyph-name="uni4E5D" unicode="&#x4E5D;" d="M135 -30c6 19 39 57 45 76c0 4 3 10 10 15c4 -7 108 171 98 175c-37 -6 -67 -13 -106 15c-18 8 -25 16 -22 23c59 18 176 41 192 109c12 51 57 184 53 246c33 -21 70 -41 60 -105c4 -36 -35 -103 -36 -126c41 -1 80 54 125 51c21 -1 80 -15 78 -47c-1 -5 -6 -9 -13 -10
c-16 -3 -45 -63 -42 -85c4 -27 -65 -135 -65 -159c0 -76 -23 -81 42 -92c61 3 208 15 221 66c13 13 -3 99 36 43c19 -27 53 -27 53 -73c0 -52 -20 -87 -63 -92c-89 -55 -262 -33 -338 20c-16 11 -36 60 -49 85c19 55 113 242 109 262c0 13 -15 14 -45 1
c-48 -22 -82 -56 -103 -111c-35 -89 -150 -265 -240 -287z" /><glyph glyph-name="uni4E60" unicode="&#x4E60;" d="M661 -88c-59 13 -136 93 -177 123c-7 -1 -25 23 -31 31c-34 -17 -65 -35 -115 -37c-34 -2 -51 -6 -46 9c3 9 11 19 23 31c44 45 57 68 42 67c-25 -11 -50 25 -53 45c-8 43 73 106 53 159c-19 48 6 94 68 68c61 -25 44 -37 23 -105c-17 -54 -36 -58 -2 -82
c28 -20 66 -31 57 -89c-10 -68 -3 -51 54 -70c75 -26 66 -25 66 74c0 87 14 332 7 483c-40 -5 -86 -8 -114 -23c-47 -24 -43 -6 -88 -41c-35 -27 -40 -51 -60 -76c-28 -18 -66 9 -78 25c-20 27 7 23 45 37c88 33 172 118 277 141c39 9 101 -27 101 -63
c10 -42 -2 -474 -8 -491c-4 -36 -6 -79 -6 -126c0 -59 5 -84 -38 -90z" /><glyph glyph-name="uni4EC0" unicode="&#x4EC0;" d="M355 638c10 41 48 -9 49 -32c1 -19 -13 -62 -22 -66c-6 -5 -9 -11 -9 -18c0 -11 -19 -52 -70 -113c-39 -47 45 -41 55 -65c15 -5 -3 -99 26 -58c18 25 21 -7 13 -24c-7 -16 -12 -45 -18 -84c-14 -95 -26 -146 -35 -152c-9 -5 -16 -5 -24 2c-11 5 -53 86 -54 100
c-3 38 40 161 -26 105c-20 -17 -47 -32 -59 -7c-36 71 -33 67 15 122c26 30 147 244 159 290zM561 650c-2 62 3 77 50 63c19 -19 50 -75 45 -124c-9 -94 54 -104 125 -117c22 2 81 -50 56 -70c-24 -35 -139 -37 -181 -61c-20 -92 19 -376 -13 -461c-30 -4 -60 -4 -65 24
c-15 26 4 389 -22 384c-19 3 -61 -4 -75 9c-13 7 -29 20 -49 40c-21 22 -7 25 26 27c37 2 72 24 99 41c3 68 6 191 4 245zM661 445c24 5 -14 55 -19 23c-6 -15 1 -33 19 -23z" /><glyph glyph-name="uni4ECE" unicode="&#x4ECE;" d="M292 380c14 26 -28 84 8 90c43 -19 110 -72 85 -136c-16 -45 8 -46 -3 -93c-7 -30 -6 -30 10 -49c27 -31 42 -54 48 -69c10 -28 -27 -46 -54 -36c-38 15 -51 75 -94 82c-24 -12 -33 -49 -62 -67c-30 -19 -43 -34 -80 -22c-24 8 -19 28 2 34c22 6 51 60 60 85
c8 19 8 30 2 31c-15 4 -2 17 9 15c31 11 62 123 69 135zM537 587c19 10 59 -3 79 -8c23 -5 77 -60 84 -81c9 -104 -70 -181 -95 -265c0 -6 15 -9 43 -9c93 -3 172 -72 207 -134c12 -22 17 -67 -1 -81c-56 -15 -99 16 -123 52c-10 30 -131 97 -147 117c-9 11 -25 -1 -51 -40
c-43 -65 -72 -98 -86 -98c-30 -2 -5 38 2 50c65 100 108 191 127 272s12 144 -20 190c-13 19 -19 31 -19 35z" /><glyph glyph-name="uni4EFB" unicode="&#x4EFB;" d="M601 620c26 26 103 -8 117 -26c5 -8 2 -16 -7 -26c-4 -9 -93 -56 -109 -54c-17 -3 -5 -12 -24 -20c-31 -14 -18 1 2 28c29 38 37 64 25 78c-5 7 -7 13 -4 20zM872 326c-3 -45 -17 -36 -72 -38c-65 -3 -67 -4 -94 -48c-21 -34 -12 -80 -21 -116c-4 -17 4 -11 22 -13
c45 -6 143 -32 112 -96c-6 -12 -74 10 -86 4c-65 -11 -180 -74 -231 -14c-10 12 -27 43 -27 63c0 27 36 13 60 20c52 15 87 76 83 143c-1 7 -3 10 -6 10c-16 -1 -127 -72 -135 -81c-41 -43 -117 62 -133 -10c-12 -54 -27 -70 -27 -151c0 -42 4 -58 -12 -74
c-40 -14 -62 67 -75 89c-1 6 2 12 8 20c18 27 27 203 32 237c-47 -2 -60 -23 -85 -59c-27 -40 -36 -61 -52 -13c-9 27 -10 29 8 46c35 32 275 430 256 412c-4 26 27 11 35 3c28 -65 -50 -110 -72 -160c-18 -42 -83 -141 -96 -171c9 -12 61 -24 68 -44c14 -16 14 -34 16 -55
c8 3 23 16 38 14c52 13 194 84 232 106c11 7 9 33 0 38c-2 3 -54 79 -22 78c6 5 128 -67 124 -71c35 -26 112 -15 148 -43c2 -4 4 -13 4 -26z" /><glyph glyph-name="uni4F60" unicode="&#x4F60;" d="M757 205c41 9 66 -15 83 -26c5 6 69 -61 64 -65c-19 -42 -146 -61 -188 -80c-37 -16 -9 8 30 48c48 49 80 57 33 105zM325 295c14 -3 44 87 65 96c10 -4 16 -8 28 3c25 12 112 214 112 255s8 32 38 16c47 -25 32 -47 13 -111c-30 -101 -28 -68 62 -27c73 33 86 40 185 36
c8 -1 14 -5 19 -11c17 -24 11 -62 -20 -114c-35 -62 -91 -112 -155 -151c-3 -120 1 -277 -28 -359c-23 -18 -35 -6 -60 12c-35 25 -78 21 -99 55c-9 16 -10 20 -31 16c-18 -4 -32 -1 -42 10s-25 39 -45 84c-18 42 -29 28 -41 -41c-5 -32 -4 -45 -39 -37c-19 4 -33 62 -42 74
c-4 36 25 89 19 131c-11 78 -17 51 -72 14c-52 -35 -43 -31 -65 -58c-27 -34 -37 45 -27 74c72 82 175 238 224 352c3 9 3 17 0 24c-18 42 57 -12 50 -26c-42 -85 -111 -193 -154 -276c8 -8 79 -13 82 -28c9 -9 17 -13 23 -13zM655 357c35 16 94 105 102 147
c-24 18 -176 -74 -179 -91c9 -20 45 -24 55 -41c9 -10 16 -15 22 -15zM390 280c-23 100 -50 -92 -48 -104c4 -30 32 -11 54 -31c59 -25 87 10 137 45c36 25 57 41 29 77c-18 1 -18 93 -22 107c-1 2 -24 -14 -67 -49c-47 -37 -74 -52 -83 -45zM560 40c5 -7 21 129 11 132
c-8 12 -93 -112 -82 -116c-1 -3 63 -32 71 -16z" /><glyph glyph-name="uni4F7F" unicode="&#x4F7F;" d="M372 636c0 12 3 15 9 9c14 -16 14 -54 -2 -71c-14 -16 -60 -128 -75 -142c-19 -34 -45 -85 -66 -130c-17 -36 41 -23 55 -46l17 -14c17 27 14 66 40 75c-16 -47 -49 -153 -45 -221c2 -46 -6 -27 -15 -98c-8 -61 4 -82 -34 -63c-22 11 -35 44 -48 68c26 39 32 63 32 136
c0 37 2 59 1 69c1 22 -18 16 -26 7c-20 -25 -33 -39 -37 -43c-26 -8 -50 61 -22 75c17 -1 145 248 191 332c17 30 25 49 25 57zM372 418c0 19 4 17 24 17c24 0 95 42 104 57c19 32 37 132 44 168c5 25 44 -14 50 -22c24 -30 24 -28 70 -36c50 -9 60 -6 32 -38
c-12 -13 -20 -19 -25 -19c-14 7 -109 -93 -101 -107c9 -17 50 -16 64 -35c13 -11 23 -16 28 -16c8 2 60 -30 69 -27c12 0 14 -7 6 -22c-20 -37 -73 -58 -98 -90c-2 -4 -28 -71 -22 -100c3 -5 11 -12 28 -15c44 -8 206 -114 212 -155c2 -15 -37 -31 -54 -37
c-23 14 -80 44 -81 65c-11 41 -77 64 -113 81c-27 1 -30 -17 -57 -41c-32 -29 -40 -44 -76 -56c-47 -16 -100 3 -134 26c46 19 116 54 139 94c0 5 -11 11 -33 16c-61 16 -93 28 -95 35c-5 10 34 8 48 8c-5 28 -15 57 13 70c19 17 25 33 33 66c12 48 15 72 8 72
c-32 -28 -83 9 -83 41zM556 322c-11 41 -18 31 -31 -27c-8 -37 19 -40 29 -13c5 12 6 25 2 40z" /><glyph glyph-name="uni4FDD" unicode="&#x4FDD;" d="M758 109c-23 42 -23 59 37 27c33 -18 64 -40 82 -72c5 -38 -17 -52 -51 -76c-28 -20 -57 -28 -82 -28c-44 0 -28 17 -4 40c33 32 40 69 18 109zM168 283c29 61 113 181 130 252c1 24 16 14 13 46c-4 50 46 11 46 -17c-2 -88 -25 -97 -76 -186c-29 -52 -46 -77 -43 -79
c7 -4 95 -11 93 -25c20 -22 24 -8 36 18c9 21 16 31 19 31c8 7 -6 -77 2 -69c38 21 119 97 155 133s61 64 21 43c-21 -11 -72 -20 -76 12c-8 12 -31 102 -31 122c0 14 8 15 27 4s32 -27 41 -47c13 -30 21 -23 42 -1c49 54 69 77 5 54c-43 -15 -66 -16 -75 9
c11 34 96 47 127 52c27 4 59 -4 57 -30c-1 -20 -30 -68 -40 -90c29 -9 72 -14 69 -45c0 -5 -84 -86 -76 -85c1 -8 29 -38 46 -32c39 12 123 52 180 21c17 -9 27 -18 27 -29c0 -13 -21 -36 -34 -36c-24 0 -190 -39 -201 -48c4 -58 13 -159 12 -206c1 -75 -25 -96 -80 -71
c-18 8 -106 47 -123 14c-61 -69 -120 81 -47 114c14 7 46 -19 58 -14c18 2 77 36 100 47v-18c7 -17 -28 -43 -22 -51c50 9 28 86 29 153c-33 3 -133 -63 -164 -63c-19 0 -36 -31 -53 -35c-16 -4 -29 -50 -17 -71c9 -18 -3 -38 -18 -38c-34 0 -61 67 -53 107c5 22 10 60 8 89
c-1 17 -14 11 -26 4c-8 -5 -17 -14 -30 -26c-44 -42 -70 -60 -79 -55c-3 0 -36 68 -33 73c-5 4 60 65 54 69zM578 331c-6 24 -12 19 -36 5c-15 -9 -54 -39 -62 -52c27 2 60 22 84 28c10 3 16 10 14 19z" /><glyph glyph-name="uni4FEE" unicode="&#x4FEE;" d="M640 -41c0 23 -26 86 -45 87c-21 2 -5 16 -31 16c-19 0 -63 51 -50 76c1 15 93 93 104 113c13 12 56 140 38 130c-18 0 -81 -62 -101 -66c-35 -8 -21 -33 -51 -3c-13 14 -17 25 -13 32c1 3 5 2 10 -1c50 -15 124 98 185 99c55 1 32 -27 29 -107l-4 -30c24 7 71 12 73 -15
c-2 -11 -50 -93 -40 -99c2 -9 12 -15 33 -19c53 -11 57 -42 45 -109c-10 -58 -85 -82 -124 -113c-14 -11 -36 -19 -55 -13c-2 2 -3 9 -3 22zM700 218c7 19 -15 12 -22 -4c-5 -12 -22 -43 -16 -60c7 -5 29 38 38 64zM733 22c29 3 43 78 23 104c-2 10 -109 -67 -110 -60
c-16 1 -6 -22 3 -23c10 -2 69 -30 84 -21zM465 408c13 -2 7 -21 5 -36c-14 -88 -35 -120 -30 -241c2 -43 1 -69 0 -77c-4 -34 -63 0 -63 14c4 5 -27 39 -27 47c15 33 19 52 27 153c6 79 7 131 4 155c-8 71 71 -20 84 -15zM220 228c-28 -11 -52 -17 -48 30c2 25 1 33 14 44
c24 -3 150 278 142 309c-10 39 27 11 28 -1c7 -109 -11 -101 -60 -207c-26 -56 -38 -86 -33 -92c29 -13 38 4 53 42c13 34 21 49 26 46c-3 -76 -35 -86 -35 -182c0 -61 -22 -148 -21 -194c6 -11 -16 -27 -29 -25c-21 -10 -68 78 -46 97c6 -5 32 142 9 133zM552 617
c0 77 31 34 31 -5c0 -41 5 -33 36 -12c19 13 36 21 53 21c72 3 -39 -90 -45 -87c-55 -25 -75 -1 -75 83z" /><glyph glyph-name="uni5206" unicode="&#x5206;" d="M626 381c44 34 121 -22 148 -49c7 -8 12 -18 17 -33c37 -110 -19 -108 -68 -36c-25 37 -112 86 -97 118zM331 396c25 20 139 166 153 190c26 -5 30 -63 16 -92c-11 -22 -46 -71 -67 -99c26 -3 75 -6 86 -16c22 -19 15 -56 -27 -109c-29 -37 3 -18 42 -21
c69 -6 69 -27 73 -104c3 -40 -43 -112 -73 -123c-16 -12 -89 -15 -120 -11c-23 9 -7 59 -6 80c0 16 6 13 23 -1c52 -43 107 38 107 90c0 18 -6 14 -26 10c-73 -14 -86 -41 -149 -75l-78 -42c-36 -19 -55 -20 -55 -1c0 33 14 54 41 69c53 30 162 142 194 191
c-50 -4 -78 -9 -119 -34c-80 -49 -101 -66 -151 -72c1 37 -4 64 22 78c31 17 82 65 114 92z" /><glyph glyph-name="uni5229" unicode="&#x5229;" d="M437 465c4 4 54 -48 50 -52c0 -25 60 -10 78 -27c13 -7 23 -10 29 -8s9 1 9 -5c-38 -84 -95 -149 -139 -229c-27 -50 -7 -152 -42 -200c-17 -12 -41 12 -38 28c-2 21 -15 59 -41 37c-36 -30 -51 21 -51 53c33 32 87 102 107 150c4 11 10 72 13 96
c-37 -8 -174 -125 -190 -128c-30 -17 -76 -3 -88 21c-7 27 29 11 48 31c59 30 173 101 229 138c16 11 21 44 21 76c0 13 2 19 5 19zM554 335c4 11 -57 5 -62 0c-20 -16 -11 -42 -20 -71c-13 -40 -6 -33 18 -7c17 18 53 60 64 78zM710 502c0 24 12 47 20 23
c6 -16 4 -37 -3 -62c-16 -58 -30 -189 -53 -309c-52 -23 -82 54 -60 112c10 26 11 132 19 156c10 5 43 -40 45 3c1 25 32 46 32 77zM771 595c-29 4 -13 47 13 37c71 -29 92 -29 83 -135c-13 -153 -27 -174 -23 -371c2 -91 1 -147 -4 -166c-12 -50 -70 -26 -100 1
c-11 11 -24 19 -39 22c-69 15 39 34 58 38c15 64 5 260 15 337c7 56 7 161 4 222c-1 10 -3 15 -7 15zM423 574c19 26 44 70 66 90c11 -8 48 -30 36 -63c-8 -47 -25 -50 -71 -67c-67 -24 -67 -10 -31 40z" /><glyph glyph-name="uni5230" unicode="&#x5230;" d="M417 260c15 7 58 -50 68 -48c9 -2 -2 -55 -2 -69c40 24 26 28 57 72c23 33 27 55 38 83c13 4 23 -14 22 -31c10 -68 20 46 11 61c-2 17 -40 20 -14 36c14 19 48 6 64 23c6 5 -13 1 -1 12c17 41 26 167 39 239c5 24 27 32 60 33c63 3 97 -60 71 -130
c-20 -54 -3 -31 -3 -123c0 -86 -20 -89 -9 -146c12 -65 10 -100 26 -205c12 -80 15 -80 -23 -124c-21 -25 -64 -25 -85 0c-16 19 -59 19 -67 38c1 4 5 6 13 6c18 -1 64 22 84 30c-12 134 -33 301 -36 457c-1 71 2 96 -12 108c-13 -126 -16 -288 -49 -400
c-5 -19 -22 -54 -41 -48c-10 3 -28 54 -37 72c-41 -56 -70 -149 -149 -225c-46 -44 -56 -68 -92 -49c-5 1 -8 56 -12 58c-50 -4 -132 39 -131 74c-10 30 86 66 97 82c4 6 91 58 96 64c8 3 -35 47 -38 43c3 7 -166 -75 -156 -75c-8 -7 -58 -12 -54 10c-4 44 15 40 49 70
c50 26 131 160 152 200c0 6 -4 8 -13 7c-30 -7 -121 -34 -137 2c-1 4 4 6 15 6c71 0 138 72 196 101c37 19 75 5 53 -25c-16 -22 -25 -57 -43 -81c-26 -35 -23 -42 31 -40c55 2 79 -14 87 -53c11 -50 -7 -42 -54 -66c-50 -26 -46 -9 -79 -21c-19 -7 -12 -29 8 -28zM368 344
c17 1 50 39 24 53c-18 0 -21 -37 -24 -53zM287 72c49 -26 139 10 114 64c-6 6 -15 5 -27 -1c-24 -11 -78 -45 -87 -63z" /><glyph glyph-name="uni52A8" unicode="&#x52A8;" d="M190 286c94 48 182 127 271 180c16 10 52 -1 59 -7c22 -32 -64 -121 -86 -154l-26 -39c12 -4 34 -10 43 -1c32 -5 59 -85 37 -118c-12 -9 -40 13 -60 2c-31 -10 -170 -84 -178 -89c-16 6 -17 62 -6 76c-11 -30 194 257 175 246c-1 8 -76 -61 -77 -54
c-4 5 -164 -139 -165 -135c-43 -21 -46 48 -28 80c15 26 23 33 29 17c2 -5 6 -6 12 -4zM684 519c13 5 63 -47 60 -60c0 -11 10 -20 29 -29c71 -33 110 -69 83 -170c-23 -87 -15 -156 -77 -214c-35 -32 -42 -47 -97 -38c-12 7 -59 82 -63 79c-8 9 -41 -7 -39 -13
c8 -2 -90 -74 -90 -67c36 106 121 179 124 284c-15 19 -58 49 -62 81c45 2 114 26 86 88c-14 29 32 54 46 59zM787 348c-1 15 -31 18 -41 9c-17 -26 -65 -128 -82 -170c-5 -32 19 -92 42 -86c17 4 44 52 50 69c7 21 34 151 31 178zM291 533c34 2 85 65 131 57
c62 -10 60 -33 12 -62c-71 -43 -123 -53 -154 -32c-22 15 -18 28 11 37z" /><glyph glyph-name="uni5355" unicode="&#x5355;" d="M376 427c22 0 56 26 41 47c-49 -2 -85 -24 -114 1c-22 19 -26 26 -9 28c48 17 186 68 243 99c65 35 169 27 179 -44c9 -65 -28 -62 -48 -124c-11 -34 -26 -56 -38 -67s-17 -21 -17 -27c1 -15 -15 -3 -13 -20c1 -11 -20 -39 -32 -37c-19 -8 -79 -50 -55 -91
c2 -2 5 -3 9 -1c20 8 54 16 103 22c20 3 30 6 30 11c-5 12 141 10 137 0c18 -15 72 -27 54 -64c-17 -34 -92 10 -140 4c-67 -8 -122 -29 -184 -41c-8 -2 -12 -8 -14 -19c-4 -36 -7 -183 -7 -243c-12 -15 -42 -58 -58 -55c-5 1 -8 8 -9 24c-2 46 -2 187 -2 251
c-86 2 -178 -94 -278 -65c-7 26 2 84 28 75c71 7 164 101 198 139c-12 8 -53 12 -64 26c-34 23 -38 6 -65 54c-22 39 -22 83 -32 124c-2 10 -1 16 7 14c26 -6 56 -51 68 -76c21 -44 19 -15 64 -44c28 -18 59 -16 63 14c-1 10 -6 15 -16 15c-31 0 -57 6 -80 19
c-31 18 -36 30 -8 30c23 0 41 21 59 21zM516 366c34 23 110 123 101 176c-46 -2 -115 -31 -157 -52c-1 -28 71 -15 76 -36c16 -24 -38 -53 -20 -88zM394 580c26 29 91 108 103 156c-5 26 -36 14 -59 5s-78 -63 -78 -91c0 -26 -33 -59 -59 -40c-14 11 -52 76 -31 100
c4 3 9 1 14 -6c9 -10 23 -11 43 -4c15 0 145 82 183 91c18 -2 87 -20 81 -58c2 -17 -1 -29 -8 -35c-52 -46 -109 -112 -189 -118z" /><glyph glyph-name="uni539F" unicode="&#x539F;" d="M584 570c53 0 14 -51 58 -45c87 12 141 8 156 -3c40 -28 -14 -70 -14 -102c0 -26 -52 -84 -52 -109c0 -30 -31 -26 -44 -53c-10 -21 -12 -23 -43 -17c-72 13 -3 -39 -16 -69c0 -21 -1 -22 19 -17c36 9 83 36 130 17c51 -7 115 -89 71 -144c-26 -33 -110 -43 -183 -42
c37 29 85 80 85 125c0 85 -139 -7 -131 -3c-3 -42 15 -150 0 -195c-7 -8 -17 -9 -31 -5c-19 1 -120 81 -122 85c-17 16 -38 0 -53 -14c-39 -37 -72 -26 -103 32c-24 45 -3 75 23 93c25 -7 75 -29 98 -26c17 2 87 34 113 47c2 18 12 85 7 92c-20 8 -114 -38 -100 22
c3 14 -31 107 -44 103c-27 -31 -92 -105 -112 -148c-17 -36 -125 -183 -161 -195c2 17 65 90 71 111c37 60 81 152 119 208c27 41 75 133 81 190c7 67 45 -21 47 -31c7 -31 30 -12 45 5c18 21 36 53 19 79c-30 21 16 33 33 17c9 -4 21 -8 34 -8zM559 495
c-24 -22 49 15 20 12c-7 0 -14 -4 -20 -12zM718 427c13 52 25 69 -47 53c-12 -3 -26 -7 -43 -18c-32 -21 -75 -31 -128 -31c-52 0 -59 -2 -33 -36l16 -20c65 11 107 36 171 49c47 9 42 -39 64 3zM681 362c53 69 -38 0 -67 2c-27 -12 -172 13 -114 -40c19 -7 24 -46 45 -37
s89 43 111 48c5 0 12 10 25 27zM533 46c20 4 17 44 -11 20c-17 -10 -8 -28 11 -20zM360 612c16 -11 275 91 295 79c39 2 72 -9 77 -38c-15 -17 -142 -5 -167 -19c-36 -3 -126 -59 -163 -64c-17 -11 -56 39 -42 42z" /><glyph glyph-name="uni53CC" unicode="&#x53CC;" d="M302 -10c17 -1 -3 -24 -6 -6c0 4 2 6 6 6zM482 538c12 -6 131 76 136 77c40 7 96 -7 84 -57c-16 -68 -57 -169 -84 -226c60 -58 102 -110 181 -144c47 -21 110 -57 126 -98c2 -44 -122 -8 -149 -6c-28 13 -97 70 -109 93c-12 24 -59 79 -83 87
c-16 -1 -148 -133 -151 -147c-15 -19 -33 -47 -52 -50c-5 7 19 46 24 58c-25 9 -55 22 -66 41c-12 20 -36 52 -57 57c-8 0 -17 -11 -31 -31c-31 -43 -65 -99 -137 -115l-38 -11c45 45 123 167 150 236c-25 19 -50 37 -75 56c37 -2 74 -4 111 -7c11 25 68 141 56 145
c-33 -9 -98 -70 -137 -33c-30 19 -29 31 3 46c25 11 113 85 149 89c44 5 92 -21 74 -87c-1 -28 -5 -34 9 -46c-3 -2 144 -80 146 -78c7 -1 58 118 58 124c0 34 -14 17 -37 5s-126 -30 -115 18c1 3 6 4 14 4zM398 449c-8 2 -30 -31 -28 -39c0 -12 -31 -77 -41 -97
c41 -50 49 -115 94 -151c33 23 56 71 81 111c15 24 24 40 24 49c14 5 -130 135 -130 127z" /><glyph glyph-name="uni53D1" unicode="&#x53D1;" d="M439 526c0 20 2 123 2 112c21 -6 48 -29 62 -57c20 -42 26 -38 84 -48c37 -6 53 -5 47 -37c-16 -27 -30 -10 -70 -29c-50 -24 -50 -17 -70 -63c-10 -23 -22 -58 -19 -84c26 12 71 14 95 -1c51 -32 35 -112 20 -190c75 -15 159 -67 198 -110c12 -13 24 -44 1 -55
c-32 -14 -125 -7 -110 39c7 22 -14 17 -40 34c-38 13 -53 31 -89 19c-16 -37 -66 -85 -115 -88c-21 -9 -92 54 -103 55c-8 2 -23 -34 -27 -35c-10 -3 -12 -48 -37 -36c-23 11 -36 18 -30 56c-1 32 37 62 26 90c-12 29 -3 28 22 41c53 28 47 42 78 117c30 72 38 110 31 110
c-3 4 -75 -46 -78 -41c-14 2 -43 -25 -41 -38c2 -36 -50 -15 -56 1c-5 5 -23 61 -22 74c11 28 50 90 21 127c-15 11 -15 18 -2 20c40 -5 89 -29 101 -64c14 -40 56 7 81 12c23 12 40 34 40 69zM513 269c-13 8 -107 -94 -98 -105c-2 -18 61 -18 87 -19c11 26 24 52 24 88
c1 24 -4 36 -13 36zM418 91c-78 1 20 -48 30 -9c0 6 -10 9 -30 9zM602 617c-9 43 61 27 79 4c18 -24 107 -65 99 -102c-9 -40 -97 -16 -106 5c6 5 -73 84 -72 93z" /><glyph glyph-name="uni5411" unicode="&#x5411;" d="M120 217c0 7 6 9 17 4c32 -15 86 -44 100 -74c10 -23 110 -39 75 -85c-4 -4 -104 -13 -107 -7c-43 33 -66 109 -85 162zM349 591c11 3 55 -36 52 -48c0 -7 -53 -88 -58 -90c-7 -7 -10 -13 -7 -18c-3 -26 226 95 212 81c59 22 104 46 170 55c53 8 63 -1 87 -8
c82 -24 82 -66 69 -194c-11 -112 -29 -243 -71 -325c-24 -46 -35 -31 -102 -60c-7 -3 -64 18 -60 26c0 10 -55 25 -52 38c-18 51 -49 74 -111 54c-40 -13 -64 -16 -72 -16c-17 -1 -21 43 -35 44c-31 18 -44 93 -43 143c5 20 16 7 25 -9c27 -50 46 -76 99 -72
c5 -4 63 70 59 76c4 13 -105 -47 -101 -39c-3 -6 -40 33 -34 33c6 2 -12 33 -16 39c62 -19 131 72 194 47c40 -16 59 -11 59 -49c0 -39 -11 -22 -27 -59c-8 -20 -20 -33 -29 -43c-22 -25 3 -28 7 -58c3 -25 57 -61 88 -52c40 11 77 71 90 115c17 58 36 215 29 291
c-7 16 -68 13 -92 9c-111 -19 -192 -143 -319 -128c-13 2 -43 36 -57 32c-4 7 -69 -33 -85 -32c13 47 70 147 54 208c-16 62 51 4 77 9z" /><glyph glyph-name="uni5458" unicode="&#x5458;" d="M510 734c18 -4 78 -18 74 -48c6 -47 -52 -74 -54 -114c-1 -19 57 -24 55 -40c-4 -26 -51 -50 -73 -62c-10 7 -187 -163 -163 -167c59 24 138 104 200 123c28 9 66 -11 90 -22c-9 -112 -14 -198 -30 -343c-1 -9 3 -16 11 -21c78 -48 106 -54 142 -116
c24 -41 15 -68 -35 -61c-32 5 -59 25 -80 62c-24 41 -42 69 -53 83c-28 33 -36 3 -78 30l-36 18c-28 -28 -88 -92 -114 -105c-12 -6 -99 -16 -140 -19c64 68 155 140 183 222c3 9 -8 44 -8 70c28 16 97 -42 103 -62c4 -12 11 -23 21 -11c2 4 7 35 10 93c6 126 16 149 -47 90
c-29 -27 -123 -61 -150 -82c-8 -9 -18 -115 -4 -128c13 -25 15 -50 -11 -53c-41 -4 -58 63 -59 105c10 56 47 150 87 191c35 36 45 57 38 57c-47 -18 -91 -22 -86 17c4 30 -40 98 -22 131c11 19 12 54 26 64c16 -11 43 -68 51 -92c5 -15 10 -23 13 -23c8 -8 90 103 83 110
c0 6 -8 4 -21 -9s-62 -31 -85 -19c-22 19 -13 41 19 50c31 9 112 75 143 81z" /><glyph glyph-name="uni5728" unicode="&#x5728;" d="M452 -86c-27 12 -64 74 -38 113c10 15 36 205 21 233c-12 -7 -25 -25 -35 -41c-81 -122 -119 -188 -218 -258c-35 -25 -51 -26 -39 -12c64 79 129 141 203 257c56 88 84 139 79 154c-3 8 -1 12 8 12c42 28 44 67 81 109c61 69 18 47 -65 1s-96 -78 -173 -37
c-32 17 -28 30 -3 30c43 0 218 81 282 111c37 18 65 29 72 66c-10 59 91 10 97 -2c5 -24 57 -18 28 -45c-78 -26 -205 -178 -246 -229c-21 -26 -14 -65 3 -84c35 -4 120 33 135 48c10 23 -50 67 -19 101c5 5 16 1 31 -12c47 -44 57 -64 112 -77c37 -9 69 -28 45 -57
c-8 -11 -16 -14 -24 -13c-64 8 -46 -54 -74 -100c-16 -27 -20 -43 -20 -46c34 0 74 4 115 -14c32 -14 49 -24 49 -37c-18 -26 -66 -49 -113 -31c-52 6 -116 -36 -178 -36c-38 0 -59 -2 -62 7c-7 18 -12 18 -20 4c-15 -27 0 -105 -34 -115zM581 209c-23 0 -66 42 -79 7
c-3 -9 -8 -76 -12 -102c19 -2 87 -13 95 -4c17 21 59 78 60 115c0 7 -58 -19 -64 -16z" /><glyph glyph-name="uni5730" unicode="&#x5730;" d="M557 190c-8 6 -18 4 -15 -9c6 -26 61 -28 88 -38c110 -39 238 21 316 60c8 1 29 24 39 23c16 -20 18 -59 -4 -79c-15 -14 -51 -49 -73 -49c-7 0 -11 -2 -11 -6c-54 -22 -162 -50 -230 -25c-36 13 -142 26 -164 43c-23 10 -33 39 -42 67c-15 -30 -49 -100 -67 -109
c-14 -3 -42 -54 -48 -64c-29 -17 -64 12 -69 38c-5 29 -40 41 -9 77c15 6 18 83 9 95c-26 -14 -80 -72 -87 -70c-39 -24 -164 -20 -188 20c81 18 116 65 183 119c44 35 67 59 74 67c9 9 6 20 2 30c-7 21 -6 29 3 24c4 -1 16 -16 16 -1c12 36 -16 87 -18 111
c43 -2 87 -29 79 -83l-2 -35c44 -4 106 9 106 -36c-12 -29 -66 -71 -98 -78c3 -22 7 -84 15 -90c9 -8 37 12 79 65c37 46 55 39 46 88c-4 24 -8 54 23 45c15 -3 22 -2 22 4c-1 2 17 166 4 168c-28 70 93 15 100 -4c16 -9 -13 -122 0 -119c7 0 40 39 53 36
c36 -1 100 10 94 -31c-1 -11 -6 -50 -17 -116c-11 -70 -39 -116 -81 -150c-15 10 -31 20 -47 30c-9 -31 -36 -54 -68 -27c-5 4 -10 7 -13 9zM555 543c3 -29 7 -69 7 -104c0 -71 15 -40 12 33c-2 49 -5 74 -12 77c-4 1 -6 -1 -7 -6zM659 372c-17 -1 -26 -32 -21 -52
c9 5 18 25 22 37c4 10 4 15 -1 15z" /><glyph glyph-name="uni578B" unicode="&#x578B;" d="M668 665c-10 74 109 11 108 -15c10 -27 9 -308 10 -331c3 -43 3 -66 -31 -69c-24 3 -21 -18 -41 -12c-17 1 -14 35 -29 33c-35 7 28 21 31 29c14 25 13 53 6 102c-5 38 -3 219 -18 246c-6 5 -10 6 -12 1c-18 -41 -40 -117 -40 -188c0 -109 -2 -159 -50 -137
c-15 7 -5 21 -19 33c-7 6 -19 32 -4 37c8 -4 8 36 3 38c-57 0 -71 -25 -80 -87c-11 -81 -10 -88 42 -131c57 -47 74 -25 159 -71c10 -6 17 -26 7 -33c-22 -5 -88 1 -100 -12c-32 -18 -39 4 -37 -52c3 -61 16 -28 95 -28c59 0 64 9 101 -8c33 -15 46 -24 19 -52
c-20 -20 -67 -13 -108 -15c3 12 7 23 10 35c-119 -15 -189 -23 -294 -59c-46 -16 -74 -24 -85 -24c-20 0 -44 26 -44 60c29 -11 124 11 152 11s94 59 91 87c0 9 -8 13 -23 13c-29 0 -80 33 -102 48c-71 50 75 16 96 34c62 0 7 88 -11 98c-31 17 -29 88 -28 141
c-55 -21 -84 -36 -108 -90c-19 -42 -46 -86 -86 -94c-19 -4 -23 12 -4 15c9 1 66 91 53 106c-23 3 -72 -27 -91 -22c-7 2 -11 10 -6 23c11 28 60 32 78 61c13 21 24 19 9 36c-14 17 -5 33 16 20c17 -11 18 -5 32 7c9 2 101 124 98 134c2 14 -84 -48 -111 -44
c-13 2 -72 34 -46 46c29 7 19 -2 66 21c57 29 39 9 83 35c47 28 90 15 127 -8c-13 -24 -37 -69 -53 -79c-17 -10 -47 -38 -22 -60c38 -51 66 30 83 52c25 19 49 -17 69 -13c11 2 41 115 39 132zM575 476c20 -7 8 46 -7 41c-9 1 -26 -22 -17 -33c4 -5 12 -8 24 -8zM404 435
c-6 -16 36 0 11 7c-5 0 -8 -2 -11 -7z" /><glyph glyph-name="uni5802" unicode="&#x5802;" d="M225 140c-21 2 -21 19 -22 45c0 16 4 24 11 24c-4 -20 294 249 136 93c-82 -81 -30 -41 60 12c63 37 95 59 99 65c8 5 13 43 5 50c-7 6 -59 -19 -59 -25c-4 -5 -6 -5 -6 0c1 11 60 67 76 84c-1 23 2 102 -6 104c-36 -13 -76 -79 -97 -102c-33 -7 -36 8 -63 34
c-30 30 -38 40 7 25c60 -20 55 6 115 38l52 35c0 14 -8 62 -3 68c28 26 42 -59 92 -38c27 5 74 -9 74 -32c-13 -37 -71 -93 -92 -122c-6 -7 -6 -75 4 -70c3 -3 77 26 90 25c31 -3 96 -23 97 -47c13 -24 -23 -114 -41 -132c-3 -12 -85 -70 -82 -96c13 -4 -62 -125 -58 -124
c42 11 115 -22 139 -40c29 -22 -1 -58 -27 -58c-108 0 -173 -10 -311 -50c-50 -15 -55 -3 -58 45c-3 51 3 54 55 54c56 0 86 23 61 81c-19 44 -29 -8 -59 0c-35 -1 -49 53 -24 76c59 2 139 19 114 97c-8 13 -6 45 -25 33c-65 -39 -167 -128 -254 -152zM710 370
c-5 41 -120 -4 -126 -17c-11 -9 -12 -69 -11 -104c50 -6 131 80 137 121z" /><glyph glyph-name="uni5927" unicode="&#x5927;" d="M294 600c12 18 49 5 110 -38c25 -29 137 3 161 -31c34 -47 23 -68 -37 -68c-55 0 -101 -49 -122 -63c-16 -11 -10 -28 0 -34c26 -16 73 -63 106 -84c60 -37 110 -122 180 -155c57 -27 122 -82 178 -102c6 0 9 -4 9 -11c0 -8 -17 -16 -51 -20c-65 -8 -160 -15 -194 21
c-22 22 -44 25 -56 44c-25 38 -56 110 -90 141c-15 12 -38 34 -69 63c-45 43 -66 51 -66 24c0 -82 -116 -186 -162 -222c-81 -64 -85 -52 -15 19c65 66 97 95 128 176c12 33 19 49 10 65c-35 -36 -86 -48 -150 -8c-52 33 -66 33 -3 53c41 13 110 41 132 65c7 19 27 9 36 22
c11 29 -13 112 -30 123c-7 8 -8 15 -5 20z" /><glyph glyph-name="uni5931" unicode="&#x5931;" d="M551 152c2 25 40 0 50 -5c45 -23 44 -7 77 -33c35 -27 72 -41 100 -84c16 -25 27 -46 30 -64c6 -44 -2 -21 -37 -34c-63 -4 -52 17 -93 70c-28 37 -54 71 -83 98s-44 44 -44 52zM394 514c6 -2 54 18 53 23c-6 18 -41 96 -23 116c4 14 17 17 16 1c-6 -5 61 -76 70 -80
c31 0 103 -8 114 -40c2 -7 -6 -22 -21 -44c-47 -70 -63 -107 -50 -112c10 -4 25 1 25 9c5 16 41 0 58 11c16 10 124 -24 136 -35c20 -29 2 -36 -54 -34c-60 2 -114 -15 -154 -24c-12 -3 -23 -11 -27 -27c-17 -67 -161 -221 -221 -246c-35 -14 -53 -19 -53 -11
c0 12 20 3 21 15c22 36 110 139 123 193c-53 -13 -151 -89 -193 -71c-7 5 -31 52 -24 60c3 7 15 15 35 19c33 7 121 48 151 69c18 13 69 73 79 90c7 11 9 65 -3 68c-6 2 -16 -4 -34 -18c-53 -40 -71 -63 -96 -14c-8 14 -12 25 -12 34c-4 2 25 100 24 112c7 10 -31 29 -9 29
c18 0 42 -10 58 -15c3 -28 -10 -77 11 -78z" /><glyph glyph-name="uni5B66" unicode="&#x5B66;" d="M492 358c69 28 48 31 107 18c77 -17 30 -124 -11 -148c-20 -20 -38 -26 -27 -52c5 -6 30 -8 74 -5c67 5 118 -8 157 -30c24 -13 23 -71 -19 -63c-39 -4 -79 43 -119 20l-28 -9c-9 -107 -16 -191 -113 -204c-83 -11 -68 -19 -129 10c-65 31 -64 52 -109 98
c-24 24 -29 21 -28 59l3 30c60 2 135 32 183 51c29 11 11 55 27 81c5 23 27 36 32 50c-18 6 -43 -4 -61 12c-13 11 -21 22 -21 35s4 21 12 21s31 10 70 26zM500 -13c27 17 18 56 20 98c-37 10 -151 -44 -171 -59c-11 -16 -2 -18 13 -34c40 -43 94 -48 138 -5zM258 436
c13 23 23 21 30 -6c21 -76 -35 -120 -35 -187c0 -51 -25 -59 -47 -17c-10 19 -15 37 -15 55c0 27 22 79 67 155zM349 668c0 4 3 5 8 4c35 -14 100 -45 87 -95c-5 -9 -11 -12 -18 -11c-4 -7 -83 99 -77 102zM537 432c13 30 126 79 115 98c-29 -2 -167 -78 -185 -93
c-47 -39 -85 -56 -125 -10c-16 18 -21 32 -16 39c17 -3 22 -4 62 9c55 18 123 47 168 80c-27 4 -60 -23 -91 -16c31 30 131 79 141 133c9 45 -44 26 -49 -3c-17 -36 -31 -35 -55 -5c-19 23 -31 33 -18 50c11 2 13 -17 30 -15c30 4 73 21 110 21c9 0 83 -31 74 -50
c19 -19 -98 -105 -14 -79c39 12 64 -9 91 -19c34 -12 23 -34 -27 -68c-25 -17 -113 -53 -151 -57c-12 6 -57 -25 -60 -15z" /><glyph glyph-name="uni5B9E" unicode="&#x5B9E;" d="M637 37c30 1 55 14 71 15c26 -16 100 -47 103 -86c23 -47 -16 -61 -53 -50c-10 3 -45 60 -42 66c1 13 -60 45 -79 55zM509 89c-66 -23 -148 -69 -233 -69c-52 0 -27 59 8 70c23 7 86 71 102 97c15 24 -17 73 -10 83c0 21 21 51 31 68c-5 18 -48 51 -10 56
c31 -4 135 -18 113 -68c3 -23 -84 -44 -38 -67c21 -10 47 -31 48 -58c19 -7 18 20 24 65c8 59 -8 93 -9 132c5 12 15 17 27 7c8 -7 46 -82 48 -95c2 -16 58 -60 77 -58c35 5 65 -32 36 -54c-38 -13 -122 -32 -137 -71c-43 -112 -76 -207 -212 -245c-32 2 -2 14 25 38
c39 33 73 71 97 118c15 29 19 46 13 51zM622 252c-7 35 -26 -5 -20 -18c8 -5 28 4 20 18zM530 451c-9 2 3 17 8 14c10 -1 -2 -17 -8 -14zM266 488c15 -16 45 -47 45 -70c0 -29 -52 -86 -52 -114c0 -71 -55 -53 -69 7c-24 100 22 115 76 177zM460 686c-15 36 -7 36 22 16
c35 -25 71 -49 45 -106c-3 -9 -2 -14 3 -14c8 0 122 40 153 50c26 -13 86 -41 79 -68c-4 -15 -19 -27 -51 -34c-10 7 -152 -68 -158 -63c6 10 19 19 30 27c93 60 91 84 17 49c-33 -16 -40 -36 -64 -44c-35 -12 -75 -73 -134 -50c-32 2 -61 25 -54 47c18 3 107 49 139 64
c-17 1 -74 -9 -81 -3c-1 3 11 17 35 44c25 28 32 56 19 85z" /><glyph glyph-name="uni5BB6" unicode="&#x5BB6;" d="M864 -64c20 -39 23 -68 -32 -62c-47 5 -50 25 -87 60c-2 8 -125 122 -125 133c0 5 3 5 10 3c86 -21 198 -63 234 -134zM784 312c1 -17 -12 -55 -25 -56c-19 -7 -15 -15 -46 -36c-22 -15 -43 -30 -63 -42s-30 -14 -30 -10c16 18 93 125 102 157c4 13 -31 30 -12 42
c23 14 80 -32 74 -55zM163 474c7 10 16 23 26 25c16 3 -36 -132 3 -92c12 12 21 9 23 -6c15 -29 -49 -74 -57 -79c-5 -2 -11 0 -18 7c-33 29 -26 79 23 145zM314 551c37 0 99 40 130 48c6 -3 31 17 14 20c-12 2 -31 1 -45 1c20 19 49 55 39 94c-1 6 3 8 9 8
c20 4 72 -52 69 -71c1 -21 2 -15 23 -15c31 0 128 30 158 7c44 -22 38 -30 11 -70c-38 -56 -98 -54 -161 -97c-7 -5 -10 -10 -10 -16c8 -18 -146 -166 -130 -170c0 -3 14 -11 41 -20c48 -16 100 -76 113 -120c6 -5 39 9 30 -5c-6 -9 -37 -35 -33 -50
c-10 -71 -72 -123 -127 -167c-30 -24 -99 -53 -149 -42c-57 27 -85 124 -38 190c16 42 71 86 88 113c0 8 -15 7 -17 0c-11 -23 -80 6 -72 25c-1 22 24 52 43 55c16 -7 99 95 100 103c7 7 -71 3 -73 7c-22 46 22 59 69 67c73 12 143 61 198 106c32 26 46 42 43 47
c-81 4 -123 -1 -187 -35c-52 -28 -71 -43 -111 -57c-11 -4 -39 23 -38 35c0 6 4 9 13 9zM421 138c0 9 -8 8 -24 -2c-12 -8 -107 -85 -107 -78c-9 3 -8 -67 0 -64c13 -16 17 -64 46 -64c85 29 143 101 166 194c-1 45 -12 16 -40 -16c-22 -25 -46 -53 -72 -83
c-54 -62 -83 -44 -62 7c5 12 102 102 93 106z" /><glyph glyph-name="uni5BF9" unicode="&#x5BF9;" d="M658 678c85 -3 80 -76 87 -164c38 -13 110 -30 76 -76c-9 -12 -69 -35 -69 -45c-7 20 -5 -297 -8 -351c-3 -61 6 -144 -60 -120c-8 5 -21 19 -38 40c-64 82 -103 123 -117 123c-18 0 -53 -19 -61 -30c-16 -19 -52 -10 -69 5c-19 5 -55 92 -64 106c-2 2 -16 -9 -42 -35
c-43 -44 -80 -66 -109 -66s-8 20 1 28c10 8 68 79 71 94c-2 8 34 39 23 52c2 6 -85 64 -94 59c-8 1 5 4 7 7c6 10 122 -17 126 -10c13 14 53 88 64 106c22 35 15 39 -22 17c-45 -26 -12 -26 -62 -48c-41 -18 -123 -32 -128 18c2 6 11 9 26 9c28 1 123 54 136 72
c34 29 44 47 91 47c43 0 56 -40 42 -121c-3 -20 -10 -26 8 -28c5 -5 189 85 186 88c10 47 0 150 -31 172c-25 18 -9 66 30 51zM644 353c-4 6 -107 -63 -100 -68c1 -48 66 -37 66 -87c17 -49 -43 -48 -30 -90c3 -9 61 -60 74 -53c1 0 21 319 -10 298zM475 274
c2 27 -20 60 -35 65c-9 -1 -38 -69 -49 -86c21 -28 67 -87 63 -115c2 -16 16 -57 35 -29c36 19 -17 127 -14 165z" /><glyph glyph-name="uni5BFC" unicode="&#x5BFC;" d="M736 479c8 -3 -94 -108 -98 -99c-11 0 -58 -46 -74 -59c46 -30 65 -52 128 -26c40 16 89 23 129 11c20 -6 21 -29 5 -37c-48 -12 -160 -27 -170 -48c-13 -15 -8 -192 -3 -215c10 -44 7 -91 -13 -116c-23 -30 -29 -6 -79 -6c-40 0 -106 18 -128 36c-7 21 -154 -6 -113 40
c18 20 20 41 14 84c-3 24 -6 35 -11 35c-1 5 -139 -53 -142 -43c-21 4 -25 61 -9 77c88 13 191 80 247 127c54 45 107 87 153 130s69 70 69 79c0 5 -4 7 -13 7c-17 0 -140 -56 -145 -66c-25 -26 -24 -8 -49 -32c-13 -13 -42 -35 -63 -42c-79 26 1 148 -13 210
c14 18 52 -24 55 -39c4 -17 -4 -71 -6 -93c33 15 43 21 100 49c96 49 155 70 176 63c35 -10 53 -19 53 -27zM532 246c12 13 -2 61 -21 39c-3 -15 -66 -43 -61 -66c-3 -4 84 22 82 27zM553 139c-7 64 -8 56 -63 34c-63 -24 -96 -44 -104 -51c-18 -14 33 -66 36 -76
c9 -33 9 -79 44 -96c31 -25 91 -26 96 18c2 20 0 76 -9 171zM310 604c91 7 152 87 230 114c8 2 23 2 42 0c62 -6 79 -27 52 -62c-24 -31 -6 -34 -36 -69l-21 -29c8 -9 34 -23 27 -36c9 -7 -140 -79 -145 -69c-34 74 37 104 65 157c34 64 23 97 -48 17
c-33 -37 -61 -57 -81 -65c-31 -12 -66 24 -85 42z" /><glyph glyph-name="uni5E03" unicode="&#x5E03;" d="M553 671c0 35 -30 63 -35 82c2 18 46 -12 50 -21c15 -14 33 -57 33 -86c-1 -16 9 -28 17 -16c12 9 14 -3 37 10c28 16 26 9 56 -8c50 -28 56 -28 22 -76c-15 -21 -96 -72 -126 -77c-32 -5 -24 -20 9 -43c23 -16 25 -23 54 -21c45 3 114 -12 138 -38
c10 -26 33 -92 16 -125c-11 -47 -19 -105 -70 -145c-26 -20 -49 -35 -71 -43c-49 -19 -39 -26 -41 -100c-3 -89 -27 -134 -84 -125c32 39 28 180 30 251c1 19 -26 81 -34 81c1 10 -112 -122 -114 -109c-8 -5 -65 82 -59 91c0 17 -18 12 -55 -15c-67 -50 -39 -18 17 39
c70 72 89 92 127 173c3 34 53 111 48 154c4 16 -29 -15 -35 -25c-65 -70 -137 -116 -255 -83c-22 6 -38 17 -49 30c-29 36 33 -1 43 0c110 14 185 100 295 153c24 11 36 42 36 92zM589 540c-4 -43 103 83 18 41c-8 -6 -17 -28 -18 -41zM558 336c69 50 18 54 11 119
c-11 -35 -21 -68 -37 -100c-10 -21 -14 -35 -11 -40c14 -2 25 14 37 21zM748 202c23 57 -4 189 -69 126c-28 -27 -17 -37 -22 -107c-3 -45 -2 -71 -1 -79s5 -12 13 -12c29 1 69 48 79 72zM594 183c6 21 1 83 -19 43c-11 -22 -11 -37 2 -48c9 -7 14 -5 17 5z" /><glyph glyph-name="uni5E8F" unicode="&#x5E8F;" d="M572 -136c-67 -8 38 40 44 37c45 2 25 105 14 130c-10 25 -69 28 -55 69c38 22 142 75 143 123c-11 -2 -29 -21 -45 -25c-42 -10 -86 -40 -133 -84c-46 -43 -75 -68 -84 -77c-35 -35 -58 37 -64 62c0 9 7 17 21 23c13 0 109 85 125 103c15 17 -1 30 -18 32
c-41 4 -36 81 -14 114c13 20 18 33 15 38c-1 3 -6 -3 -17 -20c-65 -106 -153 -327 -209 -390c-48 -53 -57 -102 -103 -141c-31 -27 -39 -10 -10 24c56 66 97 169 150 252c59 93 108 213 172 306c75 109 49 87 -46 32c-59 -34 -110 -46 -156 -35c-35 9 1 18 15 21
c82 18 232 92 285 142c9 27 -64 22 -81 12c-13 -7 -18 -6 -15 2c2 7 9 16 20 30c29 37 32 63 14 79c-25 22 -8 35 40 13c31 -14 52 -42 59 -89c-4 -30 43 -34 48 -51c0 -5 -12 -12 -33 -23c-38 -20 -83 -55 -78 -117c4 -65 3 -42 50 -14c46 27 51 28 92 17
c51 -14 4 -105 -17 -119c-17 -17 -23 -14 -12 -37c8 -17 8 -19 32 -15c49 8 112 5 117 -30c-10 -46 -141 -117 -184 -154c60 -14 71 -98 75 -166c3 -56 -8 -92 -61 -92c-40 0 -60 22 -96 18zM568 329c-41 -74 91 52 69 58c-19 -10 -55 -35 -69 -58zM564 208c-1 -11 27 8 7 7
c-5 0 -7 -3 -7 -7zM555 203c-6 4 -29 -24 -32 -28c8 5 38 16 32 28z" /><glyph glyph-name="uni5F00" unicode="&#x5F00;" d="M469 638c101 33 47 54 148 8c14 -7 17 -18 10 -36c2 -19 -87 -103 -87 -122c7 -17 60 -17 51 -52v-25c76 8 153 36 209 -7c7 -6 10 -15 7 -24c-13 -44 -179 -13 -210 -58c-4 -5 -5 -16 -3 -32c7 -20 -1 -271 -7 -328c3 -23 -28 -53 -39 -28c-8 86 -5 312 -15 374
c-14 13 -68 -10 -69 -21c-16 -26 -60 -188 -78 -199c-13 -24 -76 -48 -106 -26c-14 16 -6 16 5 36c8 15 16 18 17 12c4 -17 12 -13 30 9c22 27 50 106 48 145c2 12 -145 -67 -144 -55c-6 -2 -46 47 -43 54c38 22 133 76 147 123c0 10 6 16 18 17c44 19 106 98 140 143
c39 51 57 76 -1 40c-51 -31 -91 -51 -121 -60c-38 -12 -79 5 -86 26c23 17 146 75 179 86zM413 388c15 -17 36 -22 73 -9l43 15c0 31 3 71 -19 74c5 8 -106 -84 -97 -80zM338 334c16 -6 45 16 21 22c-9 3 -24 -17 -21 -22z" /><glyph glyph-name="uni5F0F" unicode="&#x5F0F;" d="M714 676c-21 31 15 38 47 14c28 -21 62 -31 47 -72c-11 -31 -15 -28 -58 -13c-28 10 -55 11 -36 26c15 5 16 21 0 45zM456 476c2 6 -67 -61 -65 -38c-2 15 -7 7 -19 1c-34 -17 -57 -59 -114 -55c-25 3 -67 31 -90 47c106 11 86 11 184 65c76 42 93 54 141 84
c-3 48 -18 121 -31 158c-3 9 -1 14 8 13c25 0 83 -46 96 -77c3 -17 -4 -60 -5 -81c33 -8 83 -3 73 -47c-7 -30 -50 -7 -45 -47c-2 -29 46 -153 46 -181c-11 0 121 -281 126 -267c13 5 21 45 20 66c-1 30 11 42 16 15c17 -79 28 -136 25 -169c-4 -41 39 -117 -18 -117
c-36 -12 -47 68 -64 69c-4 0 -8 6 -13 19c-20 56 -49 129 -86 219c-23 56 -39 84 -46 84c-15 0 -69 -35 -161 -104c-49 -37 -84 -61 -104 -66c-38 -9 -24 -29 -60 -21c-9 3 -12 7 -9 13c3 2 -23 56 -15 63c6 16 45 14 54 30c8 5 48 76 49 90c0 6 -6 8 -19 8
c-22 -7 -49 36 -49 46c39 5 119 39 146 66c17 17 19 17 49 10c32 -8 46 -1 44 -28c-2 -9 -8 -16 -16 -21c-29 -19 -20 -34 27 -34c43 0 55 -11 43 17c-20 50 -16 66 -58 196c1 27 -58 -30 -60 -26zM439 257c-27 -53 30 -13 29 8c4 25 -20 7 -29 -8z" /><glyph glyph-name="uni5F85" unicode="&#x5F85;" d="M677 276c10 -30 87 3 83 -42c-1 -21 -36 -40 -46 -49c-12 -11 -2 -138 -1 -175c-31 -54 -44 -131 -118 -133c-34 0 -55 13 -63 40c-1 41 -67 18 -65 57c6 21 -4 69 -11 82c-12 20 30 7 -2 24c-21 11 -21 11 -22 41c0 35 16 62 49 79c13 3 224 189 215 209
c-15 7 -129 -74 -136 -79c-53 -42 -232 -160 -218 -156c-13 -11 -9 -172 -10 -225c-32 -8 -64 7 -69 33c-5 25 -36 37 -22 72c10 24 10 62 14 93c-28 -17 -63 -90 -95 -105c-29 17 -12 105 13 114c19 20 6 17 33 45c24 26 91 153 90 199c-34 -6 -72 -12 -98 -24
c-34 -16 -31 -17 -33 26c0 20 5 37 18 52c54 62 100 134 129 212c10 10 -30 27 -7 29c26 3 60 -14 49 -38c-3 -22 -92 -160 -119 -208c46 -1 132 6 145 -43c-1 -22 -26 -47 -21 -69c43 -1 77 32 108 49c28 15 45 48 49 85c10 21 -1 45 -20 43c-37 -3 -57 32 -60 60
c2 6 9 7 20 4c12 -8 74 14 80 22c19 40 -16 93 -33 111c-7 16 30 -2 38 0c15 4 72 -49 68 -63c0 -16 16 -24 49 -25c36 7 52 -28 28 -45c-6 -7 -63 -17 -73 -28c-11 -20 -17 -72 -24 -100c-4 -17 -4 -25 0 -25c-8 -6 112 43 150 69c12 8 40 19 51 6c3 -5 9 -7 18 -7
c23 1 48 -14 48 -36c-2 -53 -148 -130 -179 -181zM339 261c1 -7 122 73 113 76c0 7 -4 7 -11 0c-28 -16 -101 -33 -113 -66c0 -7 4 -10 11 -10zM608 -28c25 42 51 127 23 167c-22 7 -39 -5 -62 -15c-18 -8 -62 -30 -91 -47c27 -17 76 -45 98 -60c20 -14 -15 -68 32 -45z" /><glyph glyph-name="uni5FB7" unicode="&#x5FB7;" d="M329 600c8 -8 -58 -128 -55 -132c0 -4 9 -8 26 -13c36 -10 52 -29 47 -57c-15 -33 40 -48 54 -59c6 6 61 27 47 54c0 21 -38 39 -13 62c34 31 -53 11 -69 34c-6 20 8 20 34 27c45 13 69 34 108 57c103 61 -34 -1 -66 0c-7 8 50 70 35 87c-1 14 -5 19 8 20
c23 3 92 -29 92 -48c0 -40 65 -15 71 -44c3 -13 -4 -24 -25 -34c-76 -39 -122 -67 -139 -85c-13 -14 -21 -21 -24 -20c-4 2 -6 1 -6 -2c-3 -7 34 -38 41 -39c7 -2 52 23 39 30c-15 16 11 16 27 14c48 -5 105 50 168 28c23 -14 42 -66 17 -97c-39 -84 -126 -202 -191 -270
c-38 -40 -60 -47 4 -59c30 -6 33 3 54 16c48 30 117 77 187 44c36 -17 61 -19 66 -62c11 -98 -120 -74 -177 -111c-5 -6 -22 -10 -24 0s63 73 63 81c12 15 35 41 10 59c-10 7 -22 3 -38 -5c-35 -17 -101 -118 -146 -128c-23 -5 -33 39 -50 40c-36 -9 -98 -23 -106 -54
c-7 -26 -39 -23 -43 4c-13 72 -3 75 36 119c26 30 40 46 40 51c-2 14 -32 22 -27 46c-2 38 -43 90 -48 133c-5 37 -13 55 -16 55c-29 -16 -43 -85 -64 -119c-20 -33 22 -43 38 -66c-7 -52 -13 -108 -13 -167c-1 -37 3 -85 -34 -64c-15 2 -59 74 -51 92c6 8 8 50 9 70
c-17 -22 -18 -65 -57 -55c-20 -5 -49 90 -24 117c5 -2 72 113 68 119c-1 3 5 29 28 73c34 65 -32 50 -50 33c-27 -25 -43 28 -36 58c36 41 119 129 124 190c1 11 -23 10 -31 11c-5 4 20 7 30 7c27 2 52 -16 52 -41zM627 347c-4 -29 11 -12 21 9s21 33 20 55
c-53 24 -31 -41 -41 -64zM518 340c4 -38 42 9 24 25c-7 0 -29 -7 -24 -25zM469 251c-5 10 0 58 -8 65c-5 3 -49 -26 -47 -30c1 -23 19 -68 56 -48c2 2 2 6 -1 13zM582 280c26 -9 56 73 7 22c-10 -11 -12 -19 -7 -22z" /><glyph glyph-name="uni601D" unicode="&#x601D;" d="M503 226c70 0 79 13 113 24c40 -21 -43 -81 -58 -90c0 -7 6 -6 14 -11c22 -14 117 -26 138 -37c25 -7 72 -59 52 -87c-6 -23 -95 -63 -134 -71c-24 -5 -148 -4 -156 4c-14 8 -100 22 -118 34c-21 14 -181 131 -46 72c65 -14 185 -63 276 -28c55 21 34 21 -7 56
c-36 30 -51 38 -104 48c-22 4 -68 67 -30 82c7 3 27 3 60 4zM703 258c-45 18 35 44 52 48c15 4 125 -51 128 -61c31 -25 8 -90 -33 -68c-23 7 -86 63 -110 67c-12 3 -23 8 -37 14zM214 243c-9 16 64 49 61 60c-15 26 -46 55 -55 97c-12 57 2 75 14 118c15 55 15 25 38 -26
c33 -78 11 -64 80 -26c38 21 53 22 40 66c-27 12 -81 13 -89 28c-10 7 -25 28 -1 28c39 0 136 78 197 95s63 26 124 11c67 -17 74 -81 47 -158c-27 -78 -71 -194 -140 -230c-138 -72 -305 -101 -344 -282c-12 -55 -10 -75 -10 -116c-7 -16 -33 -22 -44 -2
c-17 19 -24 72 -30 108c64 46 111 123 168 180c-30 4 -58 18 -56 49zM453 389c0 -39 34 -33 45 -11c25 50 92 198 78 251c-53 13 -57 -4 -101 -33c-29 -19 -43 -33 -43 -38c-1 -20 31 -41 52 -39c34 3 53 -10 41 -38c-27 -16 -54 -4 -63 -43c-4 -18 -9 -33 -9 -49zM380 410
c-3 16 -77 -16 -78 -24c2 -5 34 -56 52 -37c9 5 33 46 26 61z" /><glyph glyph-name="uni603B" unicode="&#x603B;" d="M189 -109c-88 -6 -60 170 -7 185c8 10 14 -179 18 -172c3 -8 -1 -12 -11 -13zM629 194c48 13 -10 -50 -20 -50c-11 0 -14 -4 -6 -9c31 -20 92 -31 90 -84c-9 -12 9 -75 7 -90c-9 -26 -46 -50 -68 -56c-33 -10 -123 -5 -173 -4c-59 32 -134 75 -170 118c-24 29 0 25 15 13
c53 -43 220 -96 292 -28c19 29 11 45 -15 62c-32 21 -35 49 -60 7c-30 -49 -49 -31 -95 4c-35 27 -52 43 -34 52c8 4 14 6 16 9c-10 14 172 26 202 47c11 8 12 5 19 9zM700 212c38 20 134 8 156 -28c29 -46 -16 -73 -59 -37c-15 13 -27 18 -35 22c-22 10 -6 14 -40 26
c-16 6 -23 13 -22 17zM299 424c1 -9 -15 -9 -14 0c-1 9 15 9 14 0zM483 289c-1 -11 41 -56 1 -55c-35 -9 -119 -59 -159 -77c-58 -27 -55 -19 -94 23s-20 35 -42 79c-16 31 -18 30 -4 61c6 13 11 24 11 34c0 14 3 21 8 20c23 3 28 -83 43 -102c5 -6 47 -24 67 -20
c38 27 67 69 96 112c31 46 51 77 4 48c-38 -23 -93 -111 -147 -55c-22 23 -29 32 -18 31c26 -3 180 101 200 114c36 24 46 -9 103 -12c20 -1 39 -32 29 -54c-17 -38 -82 -103 -98 -147zM284 620c16 -8 55 49 61 37c-2 -18 -32 -43 -26 -78c-1 -34 -3 -55 -36 -47
c-19 -10 -70 99 -47 115c11 7 28 -36 48 -27zM399 494c-29 0 -141 -100 -54 -2c47 53 43 48 75 117c19 41 17 66 2 69c-35 -2 15 33 20 26c18 -3 105 -34 93 -55c6 -24 -89 -111 -104 -133c-10 -15 -22 -22 -32 -22z" /><glyph glyph-name="uni6216" unicode="&#x6216;" d="M663 712c28 39 121 -23 133 -32c33 -26 18 -90 -22 -98c-42 -8 -50 -18 -44 27c7 52 -24 51 -47 79c-12 15 -20 21 -20 24zM494 486c-27 3 -128 -153 -178 -134c22 19 78 90 106 120c14 15 19 25 15 31c-15 -1 -21 -9 -44 -25c-68 -47 -109 -75 -124 -78
c-39 -6 -77 36 -83 66c1 3 7 1 19 1c54 -2 217 102 268 140c0 4 -55 105 -53 110c-3 28 16 12 38 2c29 -14 55 -39 73 -74s67 -16 89 -57c5 -19 -7 -30 -36 -37c-47 -11 -18 -23 -6 -87c13 -70 35 -125 52 -166c25 -37 46 -8 41 57c-5 62 55 6 76 -3
c0 -86 -34 -123 -70 -187c27 -92 78 -188 99 -275c7 -30 -30 -32 -40 -11c-3 1 -75 158 -73 165c2 6 -11 31 -21 29c-26 -11 -72 -45 -91 -60c-53 -41 -40 -13 -8 21c33 35 59 75 75 118c5 13 -11 40 -17 39c4 14 -338 -177 -317 -178c-25 -22 -54 19 -42 45
c22 45 67 78 96 128c20 35 38 55 47 66c27 28 -6 18 -18 12c-35 -15 -57 -8 -67 21c-11 33 -2 50 26 50c52 0 69 36 116 55c41 17 52 19 80 24c-4 27 -8 70 -28 72zM558 290c-18 24 0 96 -43 36c-20 -28 -84 -92 -99 -121c-6 -11 -13 -22 -22 -33c-40 -50 78 26 82 19
c4 -5 93 60 89 63c2 7 0 20 -7 36z" /><glyph glyph-name="uni624B" unicode="&#x624B;" d="M434 491c-15 16 17 50 25 24c7 -22 29 -25 61 -11c31 13 32 16 67 4c33 -11 50 -5 51 -34c-18 -36 -65 -30 -71 -69c-7 -15 -18 -85 -9 -103c1 -8 159 27 160 22c15 6 50 -34 56 -30c3 8 40 -27 34 -30c-30 -1 -90 21 -130 7c-39 -13 -88 -10 -122 -30
c14 -99 17 -245 -15 -325c-9 -22 -47 -37 -80 -27c-13 4 -30 14 -52 31c-24 19 -27 29 -9 29c29 0 72 28 76 52c7 0 5 208 -2 206c-91 -1 -144 -115 -249 -85c-36 10 -50 27 -6 34c40 6 109 60 181 82c72 39 70 -4 70 92c0 64 14 75 -34 56c-32 -13 -60 -8 -85 12
c-21 17 -12 29 6 31c7 -2 82 35 81 41c3 5 1 12 -4 21zM517 700c-8 21 50 1 66 -8c68 -38 29 -55 -26 -100c-37 -30 -115 -57 -177 -60c-41 -2 -2 33 8 41c36 28 109 94 129 127z" /><glyph glyph-name="uni6280" unicode="&#x6280;" d="M404 559c-6 -49 62 -29 88 -46c32 -37 -88 -24 -98 -41c-10 9 -29 -135 -22 -140c2 -11 39 32 36 14c1 -12 -39 -67 -41 -80c-3 -17 -10 -79 1 -96c20 4 22 -9 28 -28c17 -57 76 -76 132 -38c18 12 29 14 36 32c-18 28 -154 89 -140 93c21 17 69 -11 88 -14
c10 1 23 23 18 36c-3 9 2 20 13 31c8 1 52 109 44 121c-4 5 -64 -23 -75 -12c-10 2 -33 24 -37 40c15 9 108 47 125 57c8 -5 22 101 22 173c0 25 67 -32 69 -45c6 -14 4 -60 4 -84c43 -1 125 -10 83 -50c-17 -16 -81 -15 -94 -36c-15 -12 -20 -90 -24 -110
c23 -19 101 11 108 -27c-6 -48 -47 -130 -67 -172c32 -33 128 -84 161 -122c27 -31 18 -97 -37 -87c-41 -6 -16 29 -34 49c-2 10 -119 96 -130 97c-28 -5 -48 -29 -87 -44c-95 -38 -194 10 -215 84c-4 -36 -11 -80 -11 -116c0 -39 3 -57 -35 -44c-53 19 -59 132 -117 128
c-29 -2 -89 6 -68 44c49 42 127 85 173 129c0 45 1 126 6 152c12 57 -10 24 -53 -2c-62 -37 -98 -46 -120 -13c7 18 23 19 44 28c32 14 128 61 146 90c12 1 4 132 16 136c12 -1 72 -66 64 -87zM595 190c30 -23 65 44 69 58c0 16 -36 -1 -39 -8c-9 -10 -28 -36 -30 -50z
M263 90c19 4 14 14 20 40c14 62 -65 -36 -20 -40z" /><glyph glyph-name="uni6301" unicode="&#x6301;" d="M482 67c11 1 11 40 -9 33c-21 0 -29 21 -21 63c5 23 7 28 26 37c59 28 114 118 177 176c37 34 53 53 53 55c-25 1 -25 -11 -49 -23c-72 -37 -190 -113 -233 -134c-88 -43 -60 -30 -60 -178c0 -73 10 -92 -6 -124c-17 -13 -34 -8 -53 15c-24 30 -15 46 -54 81
c-37 14 -57 -28 -93 -26c-18 1 -19 9 -22 20c-4 3 -13 -5 -12 4c2 9 -25 27 -17 39c7 23 0 27 25 41c51 28 43 12 104 71l54 52c2 26 9 126 0 132c-14 -6 -11 -21 -43 -19c-53 3 -84 30 -113 55c-3 5 22 20 25 15c12 -8 149 72 145 83c7 15 -23 46 1 58c19 1 -2 14 11 27
c13 28 -29 39 -29 66c52 14 139 -54 98 -105c-10 -12 -14 -19 -13 -23c-2 -9 43 -2 39 -13c0 -5 2 -6 6 -3c12 2 43 -37 23 -49c-15 -9 -54 -9 -60 -27c-13 -16 -7 -64 -6 -94c13 16 51 77 60 78c4 0 4 -3 0 -9c-13 -22 -36 -83 -34 -117c6 -21 118 48 120 52
c11 0 30 18 44 32c-21 1 -90 1 -57 14c19 -5 16 25 33 14c16 -11 4 10 25 12c28 3 19 84 29 102c13 25 -37 4 -52 11c-11 2 -34 32 -34 42c0 7 6 11 17 11s28 5 51 14c37 16 46 36 26 61c-19 22 1 27 23 18c29 -11 52 -45 84 -52c22 -4 52 -19 52 -39c0 -15 -19 -19 -57 -19
c-54 0 -40 -15 -57 -70c-18 -58 -8 -76 23 -54c23 17 70 36 136 66c27 12 80 3 84 -25c8 -19 -26 -19 -27 -30c0 -4 -8 -11 -25 -18c-25 -10 -90 -54 -127 -93c-3 -8 18 -26 15 -31c0 -4 5 -5 15 -6c75 -6 101 -4 115 -33c-20 -25 -88 -38 -108 -60
c-28 -89 -5 -196 -19 -324c-4 -31 -28 -41 -62 -31c-44 14 -139 113 -206 111c-27 5 30 35 15 51c-3 11 -1 17 4 17zM674 328c-1 11 -11 7 -32 -12c-28 -24 -32 -51 -56 -77c-9 -10 -10 -15 -5 -16c14 -3 6 17 17 11c4 -3 6 -2 8 1c-3 4 68 44 68 53c3 6 2 19 0 40zM531 121
c17 -20 24 -36 41 -57c26 -16 -10 -66 25 -74c25 -14 53 -25 59 11c5 11 6 142 2 173c-6 41 -27 -6 -43 -5s-3 -16 -23 -14s-7 -16 -26 -14c-10 1 -33 -11 -35 -20z" /><glyph glyph-name="uni6548" unicode="&#x6548;" d="M415 -52c18 -1 -4 -26 -7 -7c0 5 2 7 7 7zM182 -52c9 -16 194 192 178 201c-3 16 -46 56 -60 62c-18 17 -116 -71 -130 -31c-15 20 -9 43 20 68c64 55 113 117 148 184c11 20 10 28 -2 24c-43 -12 -106 -119 -182 -101c-31 7 -52 12 -61 23c1 5 5 7 13 8
c21 -6 294 151 293 165c10 20 89 12 90 -9c3 -12 -44 -79 -56 -77c-14 -12 -42 -65 -53 -86c-32 -61 38 -1 46 5c3 13 100 10 101 -2c7 -22 3 -24 -15 -32c-20 -8 -62 -37 -85 -52c30 -13 45 -36 29 -87c-3 -53 27 -56 36 -123c-2 -5 20 -26 14 -30c-9 1 20 -17 16 -19
c-14 -34 -71 -23 -83 10c-31 48 -24 50 -64 10c-22 -23 -64 -57 -97 -63c-21 -4 -65 -36 -80 -50c-10 -9 -16 -11 -19 -6s-2 8 3 8zM385 213c10 2 15 50 -3 50c-12 0 -120 -45 -51 -50c17 -2 50 -6 54 0zM559 153c-107 74 50 5 71 0c19 10 32 61 28 91c-1 8 -49 32 -45 39
c4 27 -72 -22 -84 -30c-14 14 -40 41 -39 63c2 29 42 15 48 41c24 51 58 138 63 197c12 22 11 57 9 99c4 -2 76 -38 68 -51c18 -27 -44 -136 -58 -194c17 1 114 62 143 54c50 -3 69 13 69 -21c0 -23 -14 -35 -43 -35c-48 0 -130 -55 -157 -84c-19 -21 -11 -20 20 -27
c43 -9 94 -22 70 -81c-3 -28 -37 -62 -30 -88c4 -8 19 -19 46 -35c70 -41 116 -71 137 -90s32 -38 32 -58c0 -15 -19 -49 -32 -49c-69 43 -136 136 -214 171c-27 -7 -46 -51 -77 -62c-37 -13 -27 -31 -60 -37c-20 -4 -68 -23 -94 -23c-5 10 2 11 17 20c8 -1 114 82 145 117
c30 34 -6 55 -33 73zM284 695c43 21 112 -27 126 -51c9 -15 7 -28 -6 -39c7 -7 -122 -23 -125 -17c-5 3 37 47 32 55c6 11 -28 44 -27 52z" /><glyph glyph-name="uni65AF" unicode="&#x65AF;" d="M701 358c22 9 40 48 76 44c41 -4 53 -18 67 -53c31 -75 -1 -179 -6 -256c-4 -61 -17 -73 -27 -114c-10 -48 -82 -77 -145 -77c-44 0 -42 7 -21 21c89 60 118 94 139 245c11 80 15 131 6 154c-7 17 -21 14 -46 -6c-40 -32 -62 -97 -71 -151c-6 -35 -26 -74 -63 -59
c-24 17 -40 63 -10 96c31 34 32 117 47 168c12 38 7 73 14 102c28 0 53 -24 43 -66c-7 -31 -8 -47 -3 -48zM732 567c4 13 9 46 36 39c34 -2 53 1 53 -27c0 -18 -2 -20 -20 -21c-16 13 -184 -106 -97 -23c18 18 28 29 28 32zM475 638c2 29 -12 34 -16 51c26 13 82 -2 74 -42
c1 -18 2 -19 21 -20c32 0 48 -10 48 -31c7 -28 -43 -11 -52 -22c-11 -7 -20 -89 -20 -244c0 -72 -7 -107 12 -104c7 1 10 -1 10 -7c-1 -19 -18 -105 -14 -139c-42 -41 -35 66 -84 52c-43 -12 -83 -49 -113 -84c-35 -40 -55 -47 -58 -14c-6 73 59 113 93 161
c71 99 -30 -4 -40 1c-8 0 -31 -14 -69 -38c-75 -48 -116 -69 -121 -63c-10 13 19 59 30 60c21 9 100 59 132 79c1 77 3 153 5 229c-27 0 -105 0 -107 11c-2 6 1 9 9 9c34 18 117 31 105 90c-4 20 -7 35 -10 45c-2 29 16 12 35 -2c32 -24 26 -59 76 -29c42 25 51 4 54 51z
M479 480c-2 23 0 77 -12 82c-20 0 -83 -28 -80 -64c-9 -48 -7 -31 46 -27zM471 417c-13 10 -82 -11 -93 -15c-7 0 -11 -46 -4 -47c11 -1 52 32 70 26c18 0 27 12 27 36zM414 305c-18 -2 -47 6 -45 -14c3 -31 35 9 45 14zM474 172c79 -14 -18 53 -29 20c-13 -20 7 -15 29 -20
z" /><glyph glyph-name="uni65B0" unicode="&#x65B0;" d="M753 -40c0 -36 -4 -87 -24 -97c-15 -1 -4 -15 -25 -11c-10 2 -14 5 -12 12c-1 16 12 350 -14 370c-17 26 -10 28 20 16c20 -9 41 -17 61 -27c0 -71 -6 -217 -6 -263zM740 602c0 -25 -151 -147 -150 -189c2 -39 12 -18 16 -67c2 -25 6 -38 8 -38c-1 -6 170 151 169 143
c14 11 106 23 90 -15c-3 -7 -9 -11 -16 -11c-81 -26 -195 -157 -241 -211c-22 -27 8 -144 -44 -134c-16 10 -44 80 -60 86l-15 11c42 32 72 90 53 166c-10 -4 -69 -129 -87 -160v-182c-29 -5 -42 -8 -72 10c-39 22 -74 23 -103 0c-28 -23 -69 -24 -62 27c-4 24 20 36 36 33
c6 -5 125 127 121 132c7 15 5 22 -7 20c-19 1 -92 -49 -104 -36c-15 0 -28 68 -18 93c13 31 86 141 94 190c-49 -24 -109 -73 -132 -122c-14 -30 -54 -57 -84 -56c-10 4 -8 54 -8 75c77 55 244 176 250 184c27 23 23 25 71 20c34 -4 58 -6 62 -35c-6 -18 -68 -53 -72 -75
l-12 -22c22 -23 64 -71 95 -35c23 27 74 134 90 155c27 34 16 30 30 58c4 26 86 0 92 0c7 -3 10 -8 10 -15zM597 503c-15 -33 23 4 15 18c-5 0 -10 -6 -15 -18zM379 324c33 -23 32 114 5 32c-6 -18 -8 -29 -5 -32zM337 740c0 5 6 5 18 1c42 -13 93 -49 106 -93
c12 -40 -38 -59 -67 -56c-4 6 -55 -19 -71 -19c0 1 8 11 24 30c37 44 39 81 6 112c-11 10 -16 18 -16 25z" /><glyph glyph-name="uni65B9" unicode="&#x65B9;" d="M688 559c44 -6 134 -12 110 -71c-33 -11 -119 -29 -144 -49c-13 -21 -1 -28 13 -59c45 -102 57 -95 37 -219c-9 -57 -24 -96 -41 -118c-8 -23 -114 -15 -147 -16c-31 10 -61 51 -72 76c-8 6 -29 -5 -31 -8c5 -4 -151 -74 -155 -69c-7 21 10 26 43 62
c31 33 125 133 146 170c-1 6 82 123 71 128c-18 2 -160 -80 -188 -74c-34 -12 -125 18 -133 36c0 6 9 12 27 17c43 13 133 55 182 78c48 22 38 12 18 59c-12 26 -26 41 -11 62c9 13 36 2 36 -12c11 -25 27 -20 57 -35c44 -23 75 -15 87 15c5 14 73 30 95 27zM621 272
c-5 7 -11 6 -20 -1c-26 -23 -64 -70 -93 -94c-48 -40 3 -101 58 -71c47 26 41 18 52 95c6 43 6 66 3 71z" /><glyph glyph-name="uni660A" unicode="&#x660A;" d="M296 -88c-6 4 -62 -21 -68 -14c61 54 157 116 153 226c-58 -18 -164 -100 -211 -118c-26 -3 -41 49 -24 71c50 8 199 64 253 114c17 16 -11 89 -37 59c-9 -11 -14 -13 -17 -6c2 15 6 27 -18 27c-24 5 -42 13 -35 30c32 19 104 44 143 69c55 34 65 20 110 4
c3 -41 -21 -36 -62 -55c-60 -28 -85 -18 -45 -59c20 -20 22 -30 33 -45c27 -1 48 6 70 21c62 43 118 54 179 31c26 -18 11 -43 -33 -40c-62 -13 -155 -51 -208 -72c-21 -17 -13 -36 7 -59c19 -21 136 -104 164 -118c16 -8 43 -16 79 -24c85 -20 129 -35 133 -44
c6 -7 -21 -23 -34 -29c-42 -18 -130 -31 -168 0c-16 0 -195 173 -210 175c-5 0 -12 -7 -20 -22c-10 -34 -96 -120 -134 -122zM454 508c62 18 83 95 100 159c-13 10 -49 -1 -63 -6c-38 -15 -74 -67 -139 -59c-41 5 -55 1 -68 19c-5 8 -1 17 8 17c35 0 169 69 191 86
c33 25 126 -7 139 -31c11 -21 2 -86 -10 -102c-29 -38 -60 -71 -78 -118c-41 -41 -114 -65 -183 -80c-47 -10 -46 -14 -61 25c-17 44 -64 85 -63 145c1 46 20 38 35 5c14 -31 32 -42 51 -35c13 5 50 20 109 46c47 21 74 21 83 0c0 -31 -26 -32 -62 -45
c-37 -14 -77 -22 -114 -34c7 -9 28 -40 35 -40c35 0 71 36 90 48z" /><glyph glyph-name="uni662F" unicode="&#x662F;" d="M309 623c6 -1 54 -48 47 -54c15 -46 69 14 97 -6c38 -15 28 -5 31 43c3 38 2 50 -6 64c-17 3 -22 -11 -36 -22c-39 -30 -34 -47 -82 -37c-18 4 -34 21 -14 27c13 -4 101 72 109 74c46 6 106 -30 111 -76c2 -15 -23 -160 -5 -185c15 -20 -6 -81 36 -54
c22 22 57 -13 76 -12c8 3 43 -27 37 -34c12 -10 -137 -20 -158 -29c-26 -11 -25 5 -58 -12c-18 -10 -28 -17 -28 -22c-3 -13 28 -56 39 -54c18 -1 49 27 73 14c17 -9 110 -19 80 -43c-8 -7 -23 -13 -44 -18c-51 -11 -106 -56 -114 -113c-2 -15 4 -27 15 -34
c18 -11 149 -62 175 -66c27 -11 203 -4 255 -13c-1 -11 -104 -70 -117 -69c-71 -27 -140 6 -198 34c-107 52 -193 87 -262 93c-62 5 -34 33 -96 1c-29 -15 -64 -40 -102 -76c-38 -35 -52 -22 -89 -42c-19 -10 -26 -6 -25 7c94 61 225 206 289 300c12 -15 63 -68 69 -70
c5 0 9 26 14 78c6 67 -19 97 -73 57c-54 -14 -164 -145 -246 -86c-31 21 -33 32 -4 32c9 -10 159 62 217 82c14 4 128 44 150 54c17 8 17 41 4 48c-5 10 -97 3 -98 -2c-2 -3 -5 -12 -8 -29c-6 -36 -19 -34 -40 5c-31 31 -2 102 -2 146c0 23 -10 66 -19 99zM466 463
c27 -6 25 52 4 58c-12 2 -84 -8 -89 -21c-13 -11 -6 -51 8 -56c19 -6 60 23 77 19zM392 65c58 -15 17 35 1 39c-9 2 -31 -15 -39 -22c12 -6 22 -13 38 -17z" /><glyph glyph-name="uni6709" unicode="&#x6709;" d="M250 385c98 35 168 110 261 155l-2 -11c-36 -14 -91 -62 -106 -84c5 -8 -66 -109 -73 -105c-48 -19 -64 -19 -93 13c-16 18 -9 24 13 32zM417 160c7 -2 -69 -89 -70 -83c-34 -23 -96 -120 -140 -53l-10 20c46 -12 49 4 81 37c48 50 69 88 105 140c2 -9 149 295 144 296
c7 18 -50 5 -15 25c22 12 31 20 40 58c10 46 13 56 -17 30c-57 -50 -98 -54 -124 -10c-21 35 -25 55 -14 58c5 1 11 -1 20 -6c12 -7 40 3 82 34c51 37 130 13 127 -54c9 -45 7 -47 49 -30c43 16 91 -1 108 -31c3 -10 -12 -22 -21 -21c-17 -4 -5 -18 -28 -25
c-21 -6 -72 -19 -98 -14c-3 5 71 60 6 41c-23 -1 -37 -36 -24 -52c-16 -22 -50 -75 -33 -112c42 -4 81 49 128 49c37 0 35 4 52 -17c42 -90 43 -183 34 -356c-6 -124 -19 -190 -34 -200c-7 -5 -64 -15 -78 -13c-30 -3 -102 69 -93 100c8 10 -31 25 -22 33c11 3 0 84 19 48
c20 -23 11 -3 34 22c9 25 23 24 4 37c-13 4 -48 54 -48 71c0 25 113 212 21 148c-38 -26 -48 -183 -29 -236c-8 -1 -19 5 -19 -11c-5 -11 3 -136 -17 -142c-12 -13 -12 -16 -25 -4c-22 21 -6 24 -26 55c-19 52 3 47 8 122c4 57 12 127 8 175c-14 -7 -55 -94 -68 -103
c-11 -13 -17 -21 -17 -26zM733 386c-9 36 -51 8 -66 -7c27 -21 39 -48 22 -93c-6 -36 -43 -63 -14 -92c9 -4 58 -26 66 -4c7 11 1 193 -8 196zM716 -48c9 4 20 98 12 125c-6 1 -54 -38 -62 -35c-5 0 -16 -3 -30 -11c-26 -14 -27 -37 -3 -64c14 -16 20 -20 47 -20
c19 0 30 2 36 5z" /><glyph glyph-name="uni6784" unicode="&#x6784;" d="M623 232c68 -2 -16 66 10 74c57 -10 115 -72 79 -138c-11 -20 -8 -29 -32 -27c-27 2 -22 35 -57 25c-31 -8 -76 -32 -137 -74c-38 -26 -58 -39 -65 10c-10 65 18 57 59 123c12 12 63 106 66 125c-2 44 80 11 75 -15c9 -14 -60 -79 -34 -94c8 -5 19 -8 36 -9zM184 312
c8 8 -76 28 -69 36c24 11 68 4 101 24c35 21 69 32 78 74c3 2 6 275 6 257c75 -9 92 -51 86 -141c-3 -43 0 -64 5 -64c50 -7 81 1 75 -40c-3 -20 -21 -45 -42 -47c-28 -2 -54 -17 -49 -56c-10 -77 67 -5 69 17c0 6 3 12 10 17c33 48 122 180 113 254c-5 44 38 17 52 5
c25 -37 10 -101 -11 -143c-52 -103 67 -8 100 -7c39 10 36 20 86 18c80 -3 95 -42 90 -134c-4 -66 -28 -300 -46 -363c0 -24 -70 -122 -89 -126c-82 0 -67 85 -118 135c-54 53 -49 76 3 28c21 -21 58 -50 86 -57c46 83 66 252 72 357c5 84 27 107 -39 98
c-54 -8 -116 -101 -166 -44l-21 20c-17 -14 -73 -67 -81 -70c-36 -4 -73 -52 -97 -77c-45 -45 -32 -126 -34 -219c-2 -102 -2 -154 -6 -156c-9 -5 -56 0 -55 12c-4 -1 -17 76 -32 93c-6 11 -48 23 -51 33c-5 3 -13 60 -10 72c29 35 81 129 81 194c-20 0 -94 -9 -97 0z" /><glyph glyph-name="uni67B6" unicode="&#x67B6;" d="M723 14c30 52 -22 74 -50 101c71 6 143 -46 165 -96c-8 -45 -37 -62 -86 -71c-26 -5 -45 -10 -58 -13c-32 -7 -17 16 -2 29c11 10 18 28 31 50zM325 150c-32 -8 -60 45 -68 55c35 11 120 24 143 47c28 27 89 44 93 93c21 -2 28 1 59 23c20 14 187 174 184 190
c-32 12 -91 -43 -98 -68c-10 -16 -33 -12 -51 -1c-16 10 -39 52 -51 75c-4 -31 -4 -50 -15 -82c-37 -105 -71 -158 -157 -151c-35 15 -59 52 -65 93c-34 -15 -79 -75 -113 -106c-20 -17 -31 14 -20 32c9 14 29 39 63 72c69 69 104 110 104 121c0 2 -10 -5 -31 -20
c-58 -44 -98 -46 -131 -5c-9 10 -11 16 -8 18c1 1 23 11 64 30c129 57 197 91 204 100c8 11 -3 45 24 38c30 0 50 -18 50 -47c0 -43 14 -38 48 -69l48 -44c51 19 103 46 157 60c28 -9 88 -36 76 -75c-46 -56 -123 -85 -184 -129c-46 -33 -53 -23 -81 -52
c-40 -42 86 -28 108 -17c44 22 109 -7 122 -42c0 -5 -5 -7 -15 -11c-24 -9 -158 -9 -169 -39c-13 -16 -17 -19 -13 -48c4 -27 -3 -48 -4 -67c0 -7 26 -8 23 -17c0 -4 -4 -6 -11 -6c-11 0 -19 -8 -24 -25c-9 -14 -14 -153 -18 -172c-24 -41 -66 28 -97 24c-26 5 -64 4 -77 20
c-33 40 -74 -57 -114 -30c-16 11 -36 54 -35 82c1 19 37 64 65 48c44 -24 145 28 188 40c33 8 26 66 26 107c0 16 -3 24 -6 24c-57 -14 -135 -73 -193 -69zM326 445c-3 -7 29 -52 36 -49c43 23 73 66 85 140c3 16 1 24 -4 23c-23 -6 -129 -113 -117 -114zM498 278
c34 11 3 42 -26 5l-19 -17c16 2 32 8 45 12zM434 -1c30 -19 88 0 84 38c-3 32 -15 20 -42 7c-40 -19 -54 -37 -42 -45z" /><glyph glyph-name="uni6807" unicode="&#x6807;" d="M797 171c14 20 -30 60 -10 69c40 -2 43 -18 76 -44c23 -17 38 -45 17 -68c-26 -28 -86 -45 -141 -35c17 19 53 60 58 78zM511 547c49 14 105 66 163 27c10 -13 5 -38 -14 -36c-17 2 -55 -27 -72 -17c-21 11 -56 8 -77 26zM206 330c-9 1 -152 28 -70 37
c34 4 126 67 172 103c3 41 11 111 -1 139c-13 32 -7 42 17 25c18 -13 44 -51 50 -76c8 -31 8 -33 38 -41c26 -7 42 -18 28 -37c-15 -11 -69 -30 -73 -44c-11 -8 -25 -135 11 -89c24 32 -2 -26 14 -24c25 -3 302 107 368 113c30 -6 95 -22 86 -60c-27 -18 -142 -14 -181 -24
l-51 -13c75 -40 53 -44 53 -205c0 -99 -5 -151 -9 -159c-9 -20 -42 -17 -52 1c-3 7 -84 66 -95 66c-12 3 -39 -50 -57 -26c-26 22 -21 37 -41 87c-22 54 34 24 55 14c29 15 117 60 127 70c17 17 13 133 -31 117s-127 -50 -183 -45c-15 1 -16 50 -28 3
c-20 -74 -16 -236 -48 -302c-7 -14 -25 -4 -32 8c-21 39 -22 66 -29 98c-7 5 -37 1 -48 -1c0 29 -23 77 2 90c34 44 84 109 96 179c9 59 1 44 -38 20c-24 -15 -40 -24 -50 -24zM595 113c9 79 -70 -12 -49 -35c5 -2 44 1 44 6c2 3 3 12 5 29zM257 79c25 -51 34 94 -1 31
c-5 -9 -5 -20 1 -31z" /><glyph glyph-name="uni683C" unicode="&#x683C;" d="M148 233c-17 0 -98 32 -44 46c35 22 202 118 213 155c10 35 11 136 5 159s-4 24 16 16c38 -15 79 -55 55 -117c-18 -46 -5 -28 46 -41c32 -1 42 -8 56 6c25 25 8 -13 -9 -67c-15 -48 -28 -76 -34 -85c-45 -60 64 7 64 11c13 5 70 26 86 44c7 7 16 22 27 45
c37 75 32 97 -15 66c-30 -20 -49 -15 -56 10c-17 11 49 143 36 150c-27 25 51 43 43 -1c1 -19 -9 -61 -9 -83c10 -11 23 -4 43 -17c40 -14 41 -75 30 -125c44 15 127 44 170 39c35 -4 55 -30 35 -52c-34 -15 -90 -33 -125 -50c-42 -20 -63 -31 -38 -3c28 31 2 21 -21 10
c-60 -28 -59 -27 -93 -76c-20 -29 -37 -55 -53 -76c-37 -51 -3 -16 -4 -85l4 -47c60 -5 67 -1 103 36c40 42 58 65 48 74c-50 7 -52 -78 -107 -66c-7 1 -43 55 -41 65c0 3 4 4 13 4c12 -13 121 69 147 76c12 3 80 -30 82 -38c-4 -43 -37 -118 -16 -168c6 -14 7 -23 2 -28
c-33 -12 -159 -78 -202 -52c-33 20 -44 3 -67 49c-23 44 -28 62 -3 108c18 35 12 40 -7 18c-20 -23 -81 -47 -125 -32c-49 17 -31 -9 -31 -87c0 -39 -1 -63 -2 -72s-4 -13 -9 -13c-24 0 -39 21 -52 59c-15 44 -9 66 -30 47c-54 -45 -71 64 -39 101c25 29 93 145 66 203
c-34 -29 -96 -116 -158 -116zM448 402c-22 -4 -56 -3 -54 -32c2 -20 -4 -48 -9 -66c22 14 60 64 70 92c0 6 -1 6 -7 6zM453 187c-22 -41 106 71 25 23c-14 -10 -23 -18 -25 -23z" /><glyph glyph-name="uni6A21" unicode="&#x6A21;" d="M692 43c-22 28 42 16 53 9c47 -30 103 -84 117 -139c12 -46 -32 -58 -57 -35c-29 49 -83 128 -113 165zM589 633c-2 -72 -80 29 -55 46c31 -6 67 -3 55 -46zM329 671c-5 53 15 24 43 3c20 -23 29 -19 24 -53c-6 -40 -13 -42 17 -52c28 0 45 -38 39 -59
c-1 -12 -64 -34 -68 -44c-8 -12 -2 -64 -12 -74c-7 -11 -8 -16 -4 -16c4 -10 151 157 94 58c-33 -58 -99 -124 -129 -187c-22 -28 3 -319 -10 -342c-10 -17 -39 -16 -45 4c-9 2 -27 156 -17 171c8 8 12 49 4 59c-36 4 -15 -92 -65 -80c-35 8 -45 74 -44 117c2 5 7 11 17 16
c24 11 114 151 119 182c5 34 -9 12 -35 2c-51 -20 -53 -11 -96 22c-29 22 -36 37 2 50c26 9 109 65 145 88c8 36 24 103 21 135zM543 249c2 11 -15 56 -25 55c-15 7 -54 -54 -70 -24c-30 34 -5 48 24 82c25 29 77 83 89 110c2 3 -98 1 -85 14c0 3 4 6 12 10
c109 50 64 36 138 114c46 49 52 60 65 110c4 13 12 13 20 0c25 -42 10 -65 -29 -101c-30 -27 -40 -43 -31 -47c35 1 45 -13 13 -58c-29 -40 -25 -51 2 -35c31 20 79 1 96 -26c-1 -69 -28 -110 -79 -166c-73 -81 -27 -56 65 -56c55 0 78 3 81 -40c-7 -27 -91 -16 -109 -33
c-15 -6 -27 -16 -39 -28c-41 -41 -203 -200 -253 -220c-16 -6 -25 -9 -28 -6s0 7 7 12c33 26 145 130 154 174c-31 2 -76 -27 -101 -32c-19 4 -77 -77 -89 -25c-10 15 0 57 1 67c0 3 4 5 11 5c17 -11 172 126 160 144zM700 422c-5 27 -16 5 -48 -12c-26 -14 -41 -29 -49 -36
c-38 -29 41 -21 56 -15c12 4 43 52 41 63zM606 188c14 15 -15 25 -24 8c-32 -28 12 -17 24 -8z" /><glyph glyph-name="uni6B63" unicode="&#x6B63;" d="M264 124c53 -2 3 72 15 123c-1 10 52 110 52 64c0 -80 29 -60 37 -132c5 -49 16 -57 72 -41c50 15 43 9 34 65c-12 76 8 71 14 161c3 50 6 77 3 80c-17 -8 -53 -36 -88 -23c-11 -10 -86 96 -45 83c25 -8 159 47 182 51c34 5 49 20 72 26c9 0 38 -22 49 -19
c18 1 85 -43 50 -61c-45 -6 -216 19 -153 -61c26 -33 8 -66 64 -74c54 -7 83 -25 83 -42c0 -47 -93 -29 -145 -40c-7 -36 -14 -78 -18 -122c33 4 113 9 125 19c35 2 114 -36 105 -75c-35 -16 -78 -8 -132 -20c-78 -17 -219 -29 -265 -51c-28 -13 -86 -26 -117 -15
c-7 3 -40 65 -30 82c5 9 16 17 36 22z" /><glyph glyph-name="uni6BB5" unicode="&#x6BB5;" d="M182 406c-14 48 58 -40 68 -48c-9 -125 -24 -388 -18 -374c12 -29 -21 -25 -32 -15c-13 23 -49 73 -27 103c8 9 26 209 23 246c-2 28 -5 57 -14 88zM206 583c59 32 102 37 129 18c33 -23 7 -38 -25 -51c-22 -9 -113 -24 -142 -15c-24 23 18 37 38 48zM511 444
c44 10 -7 97 -18 107c-63 -34 -88 -213 -126 -318c-17 -49 -25 -203 -62 -209c-19 9 -16 23 -29 54c-6 16 -5 26 2 30c17 23 27 88 34 130c9 52 22 16 42 65c15 35 27 43 -14 43c-22 1 -22 0 -16 21c16 27 -16 35 -8 48c9 13 73 -7 76 3c22 20 65 122 88 140
c27 36 166 151 204 65c8 -53 -37 -143 -61 -173c-20 -24 -33 -44 -39 -61c-2 -6 -2 -8 1 -7c33 -1 122 -12 115 -54c10 -43 18 -114 0 -168c35 -34 99 -93 124 -124c18 -23 22 -42 11 -73c-26 -43 -25 -13 -71 29c-45 41 -65 65 -108 82c-80 -9 -152 -43 -239 -43
c-38 0 -50 9 -67 24c19 48 37 116 54 151c9 9 35 12 51 17c-2 19 -7 62 -3 77c17 23 40 38 53 78c7 21 13 34 13 38c2 9 -28 10 -23 18c1 4 6 7 16 10zM587 513c11 9 43 83 25 100c-5 4 -98 -43 -95 -48c-9 -8 63 -61 70 -52zM618 208c8 3 19 95 -3 96
c-14 11 -112 -68 -97 -81c-6 -5 94 -27 100 -15zM428 72c8 0 126 45 90 63c-26 13 -65 32 -96 30c-16 -15 -27 -93 6 -93z" /><glyph glyph-name="uni6CD5" unicode="&#x6CD5;" d="M258 529c-10 33 9 14 33 5c47 -17 52 -63 7 -86c-19 -10 -32 -19 -40 -27c-17 -18 -13 2 -4 10c11 10 9 81 4 98zM518 186c-39 0 -43 36 -46 68c-4 52 -17 23 -59 5c-36 -15 -41 -20 -55 -54c-15 -35 -41 -134 -67 -179c-15 -26 -21 -52 -34 -74c-47 -23 -58 43 -52 88
c5 33 27 142 6 178c-11 19 -12 33 -11 38c27 -4 66 -37 70 -55c5 -27 -60 -217 11 -91c25 44 43 95 63 144c-7 19 -43 70 -1 72c11 -9 193 109 185 119c7 16 17 107 22 143c-10 9 -52 51 -29 58c45 13 125 -16 109 -73c-15 -56 -19 -48 40 -56c45 -6 64 -7 78 -37
c4 -18 -10 -34 -26 -37c-9 0 -115 -52 -126 -63c-12 -6 -30 -69 -33 -77s19 -8 31 -8c41 -3 100 -12 90 -57c-3 -15 -67 -115 -69 -111c-42 -17 68 -38 81 -34c5 22 -38 67 1 68c35 1 86 -21 97 -41c21 -22 -13 -38 -14 -53c-2 -35 -57 -27 -79 -41
c-47 -16 -152 -44 -217 -60c-72 -18 -94 100 -35 120c54 18 44 10 102 76c18 20 21 32 14 33c-15 -2 -26 -9 -47 -9z" /><glyph glyph-name="uni6F58" unicode="&#x6F58;" d="M195 548c42 16 67 -34 74 -71c13 -65 -5 -38 -39 -66c-37 -31 -33 -17 -22 41c8 44 -3 69 -13 96zM482 442c2 -29 -42 -42 -67 -29c-5 -2 -36 66 -20 63c28 -15 53 -18 85 15c24 25 25 20 16 62c-18 73 49 -7 72 -1c36 -4 84 -18 63 -65c-2 -19 -56 -62 -58 -76
c33 3 71 30 101 35c39 7 47 41 90 17c27 -15 40 -7 38 -30c-20 -18 -46 -6 -76 -27c-19 -14 -31 -20 -31 -26c-1 -13 17 -3 19 4c9 12 59 7 65 -4c10 -10 49 -5 30 -32c-47 -26 -161 -26 -208 -48c-20 -10 -30 -20 -30 -29c0 -11 5 -16 15 -17s27 3 50 14
c96 45 170 -5 196 -70c2 -8 0 -17 -7 -28c-23 -31 -63 -217 -74 -213c-9 -15 -90 -13 -103 -2c-52 20 -165 -72 -193 -34c-20 12 -9 40 -27 61c-37 43 -19 97 -22 158c-1 14 -6 22 -12 22c0 5 -131 -118 -128 -130c-21 -11 8 -186 -50 -143c-21 15 -58 52 -32 84
c21 27 11 161 12 208c5 18 -42 74 -27 73c41 -30 68 -12 123 15c77 37 117 54 183 120c22 21 26 24 28 58c3 54 -24 21 -21 -5zM482 360c39 5 -16 24 -8 2c2 -1 4 -2 8 -2zM457 259c24 24 35 20 46 49c0 3 -2 4 -6 4c9 8 -143 -60 -175 -86c-16 -12 -24 -62 -30 -80
c-4 -13 -3 -19 2 -19c42 22 122 93 163 132zM450 168c21 7 50 29 62 47c4 52 -54 -1 -67 -9c-13 -12 -29 -22 -27 -39c5 -5 16 -5 32 1zM712 77c5 34 38 108 16 145c-62 9 -125 -22 -150 -61c-2 -14 13 -29 36 -15c25 15 65 5 86 -8c19 -12 17 -22 -4 -27
c-12 -2 -29 -8 -52 -18c-72 -29 30 -35 59 -33c4 1 7 7 9 17zM252 136c16 12 44 51 35 78c-2 3 -42 -8 -41 -16c-3 -3 6 -65 6 -62zM510 111c-8 32 -73 -31 -18 -15c12 4 18 10 18 15zM441 93c-18 -1 4 -26 7 -7c0 5 -2 7 -7 7zM610 32c14 9 -10 36 -14 33
c-11 -8 -4 -56 14 -33zM524 -14c15 6 -5 51 -15 50c-6 3 -46 0 -39 -15c0 -13 44 -46 54 -35zM537 702c30 -1 73 -39 29 -60c-34 -16 -105 -86 -155 -86c-13 -1 114 132 99 136c-1 12 5 29 12 18c2 -5 7 -8 15 -8z" /><glyph glyph-name="uni6F5C" unicode="&#x6F5C;" d="M566 125c18 8 119 12 103 54c-1 107 -64 -48 -108 8c-39 50 43 59 61 87c21 16 20 21 55 17c86 8 78 -73 78 -159c0 -65 -2 -109 -7 -134c-8 -39 -25 -60 -66 -46c-34 20 -87 -3 -116 -12c-55 15 -69 53 -67 132c2 57 -9 89 -11 124c25 0 65 -29 65 -56
c0 -10 5 -15 13 -15zM670 66c0 40 -16 21 -40 8c-19 -11 -52 -38 -55 -56c5 -6 88 13 86 18c6 5 9 14 9 30zM590 69c-20 -2 -48 7 -44 -17c3 -44 33 13 44 17zM306 435c3 5 5 3 6 -6c2 -18 -1 -35 -8 -51c-55 -129 -10 -132 -48 -288c-18 -76 -30 -118 -41 -121
c-49 -12 -71 49 -81 83c16 20 28 208 17 250c-5 24 -3 41 3 58c9 -29 56 -83 84 -89c13 8 29 44 48 107c10 33 17 52 20 57zM272 526c2 -14 -29 -41 -44 -39c-22 -5 -46 -29 -59 -48c-9 -13 -14 -14 -13 -5c12 35 44 107 25 160c-5 13 -4 14 10 16c24 3 85 -59 81 -84z
M760 377c-4 1 24 17 14 20c-48 2 -77 -12 -106 -50c-34 -44 -69 -59 -118 -27c-32 11 -37 59 -62 62c-21 -9 -67 -93 -84 -102c-12 -13 -44 -33 -62 -38c-32 -9 -4 12 19 36c17 10 70 89 68 110c-6 5 -44 -15 -52 -2c-18 15 -4 51 40 109c32 42 41 63 29 64
c-15 0 -61 -30 -75 -19c-13 2 -27 27 -27 47c36 -8 103 9 102 54c38 -9 149 -8 93 -62c-47 -45 68 -23 41 -71c-6 -12 -70 -58 -67 -66c20 -26 62 -56 79 -91l22 17c25 19 29 29 11 29c-22 -8 -21 62 -12 78c17 27 70 66 73 102c1 5 -53 -3 -58 1c-9 1 -23 27 -16 36
c12 15 54 13 66 30c25 20 22 11 59 -1c48 -15 23 -37 63 -55c23 -11 42 -26 26 -50c4 -3 -89 -71 -94 -95c9 -19 66 -7 88 -19c18 -5 33 -11 40 -21c19 -26 -23 -26 -52 -29c-32 -4 -48 -2 -48 3z" /><glyph glyph-name="uni70BC" unicode="&#x70BC;" d="M736 138c25 60 154 2 154 -37c-12 -36 -80 -99 -128 -95c-34 -6 -59 0 -27 27c40 34 52 64 38 103c-1 5 -34 -1 -37 2zM304 600c2 54 -3 53 36 39c3 0 16 -92 24 -91c13 -15 79 2 67 -30c1 -40 -111 -92 -122 -147l-16 -39c23 -30 56 -40 47 -96c-4 -28 -5 -48 -9 -56
c-2 -4 1 -3 9 1c30 25 124 105 49 6c-25 -33 -60 -112 -84 -139c-20 -22 -22 -65 -57 -80c-47 -5 -64 100 -36 131c13 15 54 114 58 140c5 30 -27 25 -28 57c-16 59 -45 33 -76 -6c-22 -28 -34 -33 -48 2c-11 27 -9 29 0 59c24 77 30 131 17 165c-8 23 -5 27 17 17
c34 -15 47 -84 58 -120c26 13 74 48 77 95c9 32 15 62 17 92zM571 586c9 28 -40 98 22 60c24 -6 25 -31 51 -30c7 14 8 19 43 19c75 0 78 -17 8 -52l-50 -24c-9 -24 -34 -95 -36 -111c-2 -17 48 -27 51 -40c7 -10 11 -54 13 -77c36 -7 86 -9 91 -39c-5 -27 -76 -50 -91 -69
c-7 11 -14 -296 -27 -282c-3 -3 -9 -3 -16 -1c-83 25 -139 37 -167 38c-64 3 -50 12 -54 84c-3 60 9 73 36 40c23 -48 107 4 128 22c6 3 18 66 9 78c-12 15 -40 -6 -55 14c-25 14 -14 71 -18 112c-23 -3 -51 -9 -56 14c-35 52 47 33 69 49c8 -6 44 115 34 121
c-1 8 -69 -8 -77 -4c-5 1 -12 5 -20 13c-21 21 -15 32 18 32c26 0 89 16 94 33zM588 283c13 -7 6 32 -3 10c-3 -5 -2 -8 3 -10z" /><glyph glyph-name="uni73B0" unicode="&#x73B0;" d="M72 250c0 17 28 32 47 31c6 -2 90 28 98 37c22 25 27 91 29 124c2 46 -9 75 -43 54c-21 -13 -20 -12 -39 1c-13 9 -19 16 -21 21c-2 6 41 31 128 76c28 15 66 15 89 -2c34 -24 -62 -63 -105 -79c38 -31 52 -64 33 -131c-14 -49 -24 -61 16 -78c17 -7 28 -2 33 8
c13 27 12 -16 9 -30c-15 -93 -44 -170 -89 -229c-48 -65 -82 -73 -102 -25c-22 29 37 94 34 114c5 9 -67 77 -77 71c-18 -1 -40 19 -40 37zM201 229c-23 -23 32 -18 11 5c-3 1 -7 -1 -11 -5zM572 172c-40 -56 -178 -193 -258 -220c-5 0 -6 2 -5 6c31 33 144 152 168 209
c0 5 -3 19 -15 36c-29 42 -3 189 4 263c5 49 -5 67 29 47c27 -16 19 -21 19 -74c0 -44 -4 -89 -6 -136c-2 -56 -6 -83 15 -61c23 16 -8 67 11 86c18 18 1 54 44 32c39 -20 43 -14 55 26c5 18 21 157 7 176c-8 5 -50 -33 -62 -27c-15 0 -33 23 -43 34c22 20 98 94 110 93
c53 -16 81 -29 84 -39c1 -148 -33 -281 -41 -429c3 -7 -25 -28 -34 -28c-10 1 -29 24 -27 33c2 41 -51 0 -23 -14c26 -34 2 -111 2 -171c47 -25 184 -12 223 11c3 32 11 111 15 125c2 10 6 15 12 15c15 12 47 -110 65 -133c34 -43 -38 -90 -85 -98c-21 -4 -146 -3 -161 1
c-43 9 -103 39 -103 95c0 17 28 97 23 124c2 22 -14 31 -23 18z" /><glyph glyph-name="uni751F" unicode="&#x751F;" d="M354 474c-1 13 39 70 34 88c0 36 13 15 34 3c16 -9 23 -19 24 -24c15 -51 0 -96 -46 -135c-19 -16 -27 -26 -22 -30c57 -14 128 29 146 68c18 40 -10 154 0 215c21 8 25 -5 46 -20c39 -28 48 -47 54 -103c32 -5 89 6 98 -17c-1 -19 19 -9 14 -22
c-18 -15 -84 -41 -126 -64c4 -58 -32 -153 33 -153c18 0 40 -11 40 -27c0 -17 -64 -67 -83 -86c0 -24 -3 -75 8 -81c6 -4 21 -3 43 5c45 17 93 -3 117 -37c1 -28 -27 -32 -46 -42c-20 -10 -93 -2 -112 -16c-9 -8 -143 -43 -159 -42c-9 5 -85 -17 -106 -21
c-10 10 -33 30 -32 45c-3 18 -23 30 -11 60c66 -9 93 19 139 60c35 31 49 50 44 56c-6 9 -52 -27 -64 -16c-15 1 -45 55 -45 70c1 28 22 40 61 34c39 -5 81 8 78 41c-4 42 6 42 -36 39c-28 -9 -111 32 -129 33c-22 -7 -87 -82 -110 -77c-6 -2 -8 0 -7 5c-3 1 85 122 80 125
c-1 9 30 30 27 44c-4 18 14 7 14 22zM510 57c13 10 4 25 -6 23c-7 -3 -81 -35 -67 -46c19 9 56 10 73 23z" /><glyph glyph-name="uni7528" unicode="&#x7528;" d="M651 642c39 5 108 -3 108 -51c0 -78 1 -559 -20 -607c-4 -25 -16 -35 -37 -32c-31 -11 -170 142 -147 133c4 6 94 -50 97 -40c33 53 18 388 18 437c0 75 8 82 -56 67c-31 -7 -111 -68 -131 -73c-18 -4 1 -17 11 -18c29 -6 22 -38 62 -38c29 0 54 -11 48 -38
c-2 -8 -56 -86 -73 -112c22 -13 71 -18 101 -26c12 -46 -7 -46 -52 -63c-85 -31 -60 4 -77 -103c-7 -43 -9 -71 -13 -84c-8 -29 -38 -22 -46 3c-12 13 -4 90 -22 102c-16 11 -68 -42 -83 -17c-13 11 -18 33 -22 54c-17 -14 -8 -90 -12 -124c-39 -32 -65 43 -69 74
c11 91 45 387 52 444c5 44 18 43 31 8c14 -19 -1 -315 -3 -334c-5 -38 6 -47 18 -26c4 7 10 10 19 8c25 -4 131 94 96 133c-35 -13 -119 -50 -101 29c23 -12 110 32 111 47c10 13 -29 50 -20 62c-1 13 -13 14 -29 19c-27 8 -48 21 -48 44c44 6 198 86 242 100
c29 9 44 17 47 22z" /><glyph glyph-name="uni7684" unicode="&#x7684;" d="M446 64c-4 -18 -23 -72 -57 -61c-38 3 -40 21 -89 14c-66 -9 -53 26 -77 78c-32 70 23 147 -24 229c-10 18 -24 29 -17 48c30 15 97 -62 103 -83c11 -36 16 -10 49 13c28 20 25 31 62 29c41 -2 29 7 53 37c16 21 92 188 107 205c9 -2 1 -13 -8 -37
c-27 -68 -22 -82 -58 -166c-23 -52 -44 -96 -32 -152c5 -8 13 -9 25 -2c69 65 122 200 145 306c-3 33 -30 60 -54 70c-2 9 10 9 23 8c62 -7 88 -43 78 -121c4 -44 -51 -131 -51 -152c36 15 109 64 163 31c20 -12 30 -62 33 -144s-3 -131 -20 -150c-10 -22 -6 -28 -28 -52
c-34 -37 -76 -42 -141 -49c-19 19 -38 38 -56 58c-25 -2 -122 -48 -74 2c27 28 38 37 20 75c-23 27 2 49 -38 31c-25 -11 -37 -33 -37 -65zM757 127c18 62 16 220 -69 168c-10 -2 -110 -84 -112 -94c9 -29 82 -63 58 -109c-38 -43 48 -54 76 -34c21 16 38 36 47 69zM376 255
c-17 -5 -44 -37 -51 -53c2 -15 -26 -29 -16 -43c9 -12 31 46 31 52c-7 4 46 40 36 44zM354 112c-33 -60 23 -11 14 13c-2 8 -6 4 -14 -13zM306 607c-20 37 5 29 36 7c45 -33 62 -97 0 -116c-26 -8 -51 -21 -68 -24c0 2 7 13 21 34c23 34 28 68 11 99z" /><glyph glyph-name="uni76EE" unicode="&#x76EE;" d="M385 516c46 36 114 86 175 108c81 4 133 -44 133 -135c0 -52 15 -535 -13 -513c-40 -14 -53 8 -81 30c-62 50 -40 46 -120 21c-43 -13 -101 -31 -146 -35c-26 4 -39 57 -21 79c12 -42 3 539 11 501c26 -9 42 -39 62 -56zM425 482c-39 9 -32 -80 -39 -102v-22
c66 -3 133 57 202 52c-1 32 -2 143 -8 149c-5 9 -17 7 -37 -2c-47 -21 -52 -75 -118 -75zM568 262c50 -9 27 59 13 82c-38 -15 -85 -36 -111 -52c-9 -3 -21 -2 -22 6c-21 10 -61 0 -61 -35c0 -59 93 -26 123 -13c20 8 40 15 58 12zM599 101c0 31 1 65 -1 94
c-1 5 -10 5 -27 1c-43 -12 -84 -28 -118 -55c-37 -29 -57 -34 -51 -61c20 2 51 8 68 16c4 8 -4 37 16 18c8 -7 85 -12 113 -13zM396 147c-13 -42 67 15 10 6c-6 -1 -9 -3 -10 -6z" /><glyph glyph-name="uni77E5" unicode="&#x77E5;" d="M350 360c7 34 127 -3 116 -13c12 2 -60 -150 -52 -145c4 -3 37 -19 47 -25c13 19 26 37 39 55c22 3 -20 -67 -16 -82c-10 -31 28 -143 -35 -100c-20 14 -93 70 -84 109c-40 -37 -65 -72 -131 -161c-26 -35 -38 -55 -71 -23c-28 27 -17 39 5 75c50 80 76 121 71 126
c0 10 -115 -56 -117 -44c-12 3 -31 50 -41 67c10 7 28 29 44 18c25 -7 30 5 56 19c47 25 140 91 169 124zM640 332c32 -14 166 46 182 56c26 -8 98 -38 94 -44c15 -8 -34 -66 -30 -76c6 -13 -61 -65 -39 -84c12 -11 15 -29 2 -40c-10 -8 -110 -28 -117 -39
c-29 -28 -60 21 -88 13c-17 -9 -66 30 -66 40c1 12 -37 45 -34 62c-5 20 23 63 20 85c-5 38 62 -11 62 -20c14 -20 3 -94 29 -94c32 12 90 63 99 92c-4 5 -64 -21 -68 -15c-6 1 -18 8 -33 22c-32 29 -36 43 -13 42zM255 508c14 36 39 90 51 128c39 5 25 -65 25 -103
c31 13 54 25 97 15c39 -10 53 -7 52 -36c-2 -6 -6 -11 -13 -14c-81 -38 -134 -66 -157 -87c-30 -26 -47 -24 -23 0s-11 18 -15 33c-8 7 -18 49 -17 64z" /><glyph glyph-name="uni786E" unicode="&#x786E;" d="M416 140c-43 -26 -65 -46 -113 -62c-23 3 -41 17 -48 40c-9 32 -32 40 -52 11c-10 -6 -73 -130 -74 -145c2 -11 -21 -31 -32 -16c-6 7 -9 18 -9 35c5 80 143 265 180 347c26 58 41 89 36 94c-1 3 -11 -1 -30 -10c-47 -24 -79 -30 -96 -22s-22 32 1 34c27 3 108 54 128 69
c15 24 89 16 62 -26c-18 -49 -61 -148 -76 -201c0 -6 4 -8 11 -6c24 12 108 53 121 33c10 -2 18 -29 6 -35c-9 -8 -12 -52 -18 -64c-14 -30 43 -4 36 -42c-2 -12 -13 -22 -33 -34zM303 214c21 -45 52 -6 49 32c-3 4 -60 3 -57 -4c-2 -4 1 -13 8 -28zM607 688
c21 -33 -34 -84 -39 -102c8 8 -71 -138 -60 -131c16 -6 92 80 132 60c35 -2 53 -16 36 -45c-5 3 -58 -110 -54 -116c3 -14 13 -2 21 3c78 46 123 72 197 43c15 -6 27 -20 35 -39c12 -31 44 -170 37 -275c-4 -67 -2 -126 -14 -175c-2 -13 -28 -32 -38 -29
c-16 4 -187 16 -197 27c-24 10 -47 36 -57 60c-8 22 -31 -9 -52 1c-35 16 -16 -35 -24 -67c-27 2 -53 -9 -53 23c0 28 -30 43 -24 74c17 92 35 184 76 292c30 78 42 119 40 122c-14 4 -88 -51 -93 -40c-14 -3 -30 43 -20 65c27 59 79 174 106 230c11 4 0 52 19 44
c12 -1 21 -9 26 -25zM784 342c-13 10 -86 -30 -107 -40c18 -28 12 -48 65 -48c39 0 64 -2 48 -30c-6 -9 -65 -60 -89 -80c18 -26 63 -28 113 -26c5 67 -10 181 -30 224zM604 214c10 -3 47 31 45 40c-4 19 -39 -8 -42 -16c-14 -16 -15 -24 -3 -24zM624 142c-9 -37 36 4 11 10
c-3 0 -7 -3 -11 -10zM566 50c13 1 29 42 14 56c-21 13 -25 -45 -14 -56zM711 -54c66 1 108 13 103 86c-4 64 -14 33 -60 15l-43 -21v-80z" /><glyph glyph-name="uni798F" unicode="&#x798F;" d="M794 286c39 -4 114 -46 115 -87c-3 -8 -18 -105 -24 -109c-31 -94 -96 -198 -222 -192c-49 2 -105 -50 -130 4c-16 34 7 27 -23 53c-32 28 -46 71 -35 130c8 43 11 62 33 40c13 -2 15 -157 41 -83c-6 36 83 48 83 74c0 23 -22 18 -41 9c-32 -15 -55 -14 -68 7
c-8 12 -8 20 -3 22c75 46 182 97 274 132zM822 119c20 81 31 114 -44 103c-31 -5 -95 -31 -116 -52c-17 -46 118 -14 112 -47c5 -21 -62 -35 -87 -43c4 -32 -15 -98 30 -73c24 13 32 -19 53 2c18 17 38 53 52 110zM594 5c-29 -38 24 -11 16 7c-2 5 -7 3 -16 -7zM666 351
c-1 -3 56 -31 48 -41c15 -4 -148 -88 -146 -75c-8 9 18 14 4 31c-4 18 -35 15 -50 22c-37 48 -8 147 21 192c18 27 24 44 23 47c-4 8 -44 -21 -49 -16c-6 0 -13 -6 -18 -21c-6 -19 -72 -110 -76 -130c-47 -81 -47 -166 -47 -320c-1 -73 -4 -118 -4 -138c0 -67 -60 -25 -64 6
c-6 10 -15 83 -28 128c-23 3 -31 -73 -66 -34c-13 15 -9 99 6 108c8 14 88 123 88 205c0 57 0 66 -25 33c-7 -15 -107 -78 -126 -80c-18 -7 -68 15 -66 32c1 9 4 14 11 14c50 15 126 62 166 105l47 50c36 -10 71 -8 76 -47c13 -30 5 -45 27 -22c48 51 60 134 128 163
c60 26 66 57 135 57c24 -8 11 -26 -7 -38c-21 -14 -80 -99 -101 -112c-7 -2 -37 -60 -29 -72c31 11 90 96 146 77c66 -6 -25 -106 -24 -124zM600 361c28 19 20 44 -10 10c-20 -22 -12 -32 10 -10zM289 560c18 9 48 75 29 101c-2 19 -66 45 -38 61c29 17 25 2 65 -16
c53 -38 75 -25 70 -89c-4 -48 -18 -58 -69 -61c-27 -1 -45 -2 -52 -6c-14 -8 -14 10 -5 10z" /><glyph glyph-name="uni79EF" unicode="&#x79EF;" d="M734 190c1 -9 -15 -9 -14 0c-1 9 16 9 14 0zM817 149c8 12 -43 49 -32 54c41 0 106 -51 113 -85c-14 -27 -83 -70 -122 -71c-7 1 -8 6 -3 16c7 15 50 80 44 86zM597 177c6 -5 -28 -48 -17 -56c53 7 82 63 131 67c-17 -31 -85 -98 -106 -133c-11 -19 -61 -37 -79 -9
c-9 13 -20 42 -14 64c19 27 97 104 85 117c-7 14 -48 118 -74 85c-29 -36 -96 -126 -109 -152c5 -45 11 -157 10 -231c-28 -16 -50 -12 -72 23c-26 42 -112 62 -138 104c0 4 -9 14 -24 30c-61 64 -89 99 -88 177c2 6 9 9 20 9c3 -5 190 84 184 88c7 24 -26 61 -20 90
c32 -11 93 -71 114 -74c29 -5 38 -19 28 -38c-74 -151 108 68 99 72c-4 20 33 25 37 10c-4 -10 31 -23 23 -32c-7 -10 21 -27 17 -37c-1 -8 11 -27 22 -15c12 15 32 52 46 71c-16 -5 -49 -21 -66 -13c-14 0 -30 46 -28 58c1 4 6 5 14 2c20 -7 115 57 138 50
c74 -6 43 -45 11 -97c-24 -40 -36 -60 -30 -63c31 4 111 -9 80 -48c-82 -37 -161 -48 -194 -119zM138 213c-3 -7 29 -67 36 -64c4 0 6 -4 6 -11c-1 -13 31 -33 43 -43c41 62 75 108 100 174c0 8 -5 11 -15 6c-33 -17 -102 -52 -149 -52c-14 0 -21 -3 -21 -10zM326 54
c16 -4 20 32 12 39c-5 4 -33 -26 -28 -33c1 -5 7 -7 16 -6zM300 648c-18 13 -13 45 20 23c25 -17 58 -40 54 -88c-5 -59 -70 -64 -104 -92c-29 -24 -22 -5 -8 16c19 29 32 57 40 86s8 48 -2 55z" /><glyph glyph-name="uni7A0B" unicode="&#x7A0B;" d="M702 280c-20 -21 -106 -66 -144 -74c-27 -5 -50 51 -19 57c59 13 110 49 151 83c27 22 70 11 88 2c14 -59 -32 -144 8 -155c15 -4 20 -16 17 -29c5 -16 -78 -101 -71 -108c-1 -10 86 18 90 16c10 3 47 -24 55 -18c9 6 31 -29 24 -39c-5 -32 -78 -74 -113 -78
c-23 -3 -30 -10 -44 -8c-14 33 46 31 44 62c-3 4 -18 1 -44 -10c-127 -49 -203 -68 -227 -56c-44 22 1 95 44 84c7 1 56 25 40 45c-9 21 -63 -5 -69 24c-8 40 29 83 68 79c23 -3 59 9 75 19c11 7 46 87 27 104zM121 240c16 -15 173 80 196 89c2 -2 52 30 52 38
c11 55 -24 83 -54 106c102 14 121 -62 127 -147c0 -9 -2 -19 -5 -30c-5 -15 -1 -16 10 -5c8 5 74 103 82 94c-16 -65 -50 -140 -79 -194c-23 -42 -25 -40 -19 -95c4 -50 -11 -137 -29 -169c-27 -49 -93 0 -146 5c-91 8 -126 56 -150 134c-8 24 -9 38 -5 42
c41 -15 66 -101 104 -115c30 -10 29 -23 69 -23c29 0 51 18 64 18c2 -2 5 0 9 9c8 14 17 47 15 68c-16 2 -38 -5 -46 13s-31 101 -4 118c16 10 37 41 39 62c0 7 -22 -1 -67 -24c-49 -25 -90 -38 -123 -40c-37 -2 -58 14 -53 44c2 2 6 2 13 2zM662 514c-33 -10 -74 3 -69 36
c4 26 27 10 54 24c41 10 59 35 112 23c78 -18 -8 -86 -22 -109c-11 -17 -21 -19 -3 -28c22 -11 54 -3 47 -43c-2 -10 -34 -36 -43 -33c-7 5 -76 -41 -82 -38c-12 -3 -50 -19 -61 -24c-28 -14 -13 7 -1 20c21 21 21 33 0 33c-44 0 -43 64 -49 105c-6 44 15 59 35 27
c17 -15 26 -26 26 -32c0 -15 8 -16 26 -2c9 7 19 17 29 31c5 7 6 10 1 10zM401 668c0 46 59 4 54 -16c-15 -57 -73 -106 -119 -131c-45 -25 -33 -7 -3 33c40 52 68 89 68 114z" /><glyph glyph-name="uni7A7A" unicode="&#x7A7A;" d="M384 393c1 10 7 27 -6 25c-11 -1 -59 43 -76 31c-10 -3 -17 -10 -20 -21c-15 -22 -4 -169 -40 -167c-39 3 -46 69 -22 113c15 26 22 55 30 82c11 36 20 58 26 23c6 -36 31 -8 48 -6c8 1 26 7 53 20c134 65 228 102 282 110c58 9 135 3 135 -41c0 -8 -5 -15 -16 -20
c-6 -6 -211 -73 -196 -70c-2 -5 -25 -79 -21 -82c9 -15 67 -28 36 -58c-24 -15 -101 -95 -125 -106c49 -1 94 55 149 33c32 -1 47 -22 31 -45c4 -1 -90 -34 -100 -40c-2 -7 31 -37 22 -55c2 -18 -38 -81 -37 -100c5 -20 17 -11 49 -9c48 3 126 -10 135 -42
c0 -27 -33 -35 -64 -38c-35 -4 -86 17 -125 9c-5 3 -167 -50 -202 -54c-14 6 -53 30 -43 64c10 35 27 38 73 41c63 4 68 11 100 58c23 33 33 45 33 78c-3 11 -14 9 -27 6c-52 -15 -98 -44 -146 -51c-43 -6 -37 53 -20 75c4 6 8 8 11 6c5 -3 22 6 51 28c33 24 97 79 131 116
c5 18 -18 57 -14 68c-1 23 36 72 31 94c-8 35 31 6 51 16c21 5 107 65 92 68c-81 -13 -152 -29 -200 -83l-42 -37c22 -23 34 -30 27 -81s-17 -77 -37 -77c-45 0 -32 85 -17 119zM526 648c-5 -30 -10 -17 -56 -24c-63 -10 -60 -8 -23 24c29 25 26 33 34 60c6 9 57 -50 45 -60
z" /><glyph glyph-name="uni7A8D" unicode="&#x7A8D;" d="M826 239c43 -15 39 -44 36 -116c-5 -133 -5 -207 -65 -263c-36 -20 -52 -14 -129 -16c-100 -3 -143 0 -67 15c108 20 178 72 178 211c0 48 2 80 1 96s-4 25 -11 25c-6 0 -46 -37 -122 -107c-26 -24 -37 -43 -61 -18c-26 28 -41 68 -11 93c10 8 22 33 38 77
c31 86 21 102 -21 46c-39 -51 -45 -109 -78 -162c-3 -18 -99 -126 -118 -128c-31 6 -57 52 -38 90c3 -1 66 170 64 174c-23 10 -31 -15 -76 -63c-52 -55 -73 -86 -147 -101c-19 -4 -35 2 -46 11c-20 17 -21 24 -5 26c54 8 202 115 238 150c35 34 57 45 62 36
c2 -10 33 -7 36 -17c6 -6 -10 -85 10 -73c33 53 112 136 167 190c25 25 26 9 77 2c29 -4 48 -41 13 -48c-40 -7 -68 -91 -59 -141c22 2 87 43 118 17c2 -4 8 -6 16 -6zM197 450c8 51 47 101 81 114c11 -41 -19 -77 -19 -115c0 -26 -8 -49 -24 -69c-8 -9 -16 -12 -23 -7
c-18 11 -21 37 -15 77zM519 655c0 -16 15 -11 27 -8c79 23 158 50 242 49c37 -12 92 -65 66 -86c-7 -13 -55 -21 -141 -38c-72 -14 -104 -7 -74 -45c33 -43 -67 -148 -91 -164c-22 -14 -49 -31 -86 -32c32 38 114 125 124 183c9 51 -103 -42 -101 -44
c-13 -17 -3 -38 -25 -50c-31 -17 -39 -6 -54 26c-9 20 -11 34 -8 43c11 16 25 -13 46 1c32 8 106 63 144 63c30 0 134 52 135 79c-3 4 -17 4 -41 0c-92 -13 -211 -73 -296 -90c-25 -5 -47 11 -58 27c-6 2 130 45 124 46c3 3 0 5 -8 9c-18 8 -59 -3 -75 1c3 7 73 35 68 47
c13 12 -40 67 -31 75c31 12 113 -48 113 -92z" /><glyph glyph-name="uni7CBE" unicode="&#x7CBE;" d="M444 520c-59 0 -68 -54 -66 -127c1 -63 6 -110 45 -60c25 31 44 52 59 64c2 2 2 1 -1 -2c-22 -86 -140 -181 -104 -307c32 22 108 80 122 97c9 10 17 13 26 10c8 -13 133 70 122 80c-12 25 -63 -38 -66 -25c2 15 36 46 49 59c-19 21 -16 50 -59 50c-30 0 -30 -2 -32 26
c-2 24 -1 24 17 31c28 11 116 39 90 92c-13 8 -54 -28 -66 -21c-11 -4 -45 31 -44 40c25 8 90 33 112 56c13 35 2 63 -12 113c-3 11 -1 16 4 16c9 5 74 -64 69 -73c5 -18 16 -15 42 -19c40 -6 60 -14 60 -31c0 -7 -97 -25 -98 -39c-11 -8 -16 -41 -12 -62
c17 -2 79 -11 91 -26c5 -7 2 -20 -10 -40s-29 -42 -52 -65c-119 -117 55 -7 61 9l17 18c20 -7 79 -30 78 -42c18 2 -155 -149 -135 -146c3 -4 8 -3 15 2c32 15 111 1 115 -32c5 -15 10 -117 -4 -117c-19 -24 -9 -25 -47 -55c-36 -28 -63 -32 -92 -51c-13 -17 5 -32 -16 -49
c-20 -16 -13 -15 -40 -4c-22 8 -83 74 -84 101c7 33 26 24 78 27c79 5 78 12 120 63c20 25 26 46 21 61c-2 6 -5 9 -12 9c-61 -18 -118 -78 -165 -106c-41 -24 -42 -21 -54 28c-9 37 -9 53 22 59c7 -7 169 183 50 86c-108 -88 -198 -145 -263 -182c-34 -19 -22 -34 -22 -101
c13 -59 -37 -62 -57 -18c-36 79 -122 133 -166 211c-16 29 3 24 18 -2c10 -18 45 -62 61 -70c12 -1 -11 79 10 75c13 -5 24 35 32 34c1 -9 72 102 55 103c-5 5 -25 -1 -60 -17c-93 -41 -142 -58 -149 -51c-13 17 11 28 23 36c55 39 155 71 196 118c9 10 10 79 9 116
c-19 -26 -48 -35 -43 -82s-24 -44 -42 -8c-11 23 -21 49 -22 76c31 -10 85 58 111 79c1 20 -7 75 3 80c19 0 67 -50 98 -50c68 0 34 -45 -6 -45zM710 419c-38 -46 24 -2 18 11c-2 4 -7 0 -18 -11zM291 4c45 -31 22 52 23 89c-8 -16 -42 -70 -43 -76c0 -2 8 -5 20 -13z" /><glyph glyph-name="uni7CFB" unicode="&#x7CFB;" d="M738 102c3 15 -25 41 -17 54c17 16 24 2 48 -10s56 -43 67 -65c6 -11 -21 -57 -32 -54c-7 0 -10 -3 -12 -9c3 -13 -122 -9 -121 -21c-21 -16 -9 7 5 17c16 12 57 66 62 88zM307 508c116 46 243 121 344 148c9 2 69 -29 64 -38c-1 -4 -30 -20 -85 -49
c-114 -59 -140 -80 -206 -150c-10 -11 -14 -20 -14 -24c65 8 135 81 203 39c-11 -60 -71 -113 -93 -158c-1 -2 73 -33 77 -40c25 -24 20 -146 19 -208c-11 -30 -21 -87 -59 -88c-14 -9 -191 16 -205 3c-43 -16 -71 42 -71 78c0 25 32 7 50 19c39 25 99 74 143 94
c36 16 11 -8 -4 -34c-14 -25 -85 -92 -77 -111c39 -5 109 13 117 25c21 15 39 159 2 168c-35 -10 -88 -27 -119 -50c-53 -41 -56 28 -48 75c37 15 53 23 95 73c45 53 56 65 82 104c-75 -19 -157 -42 -168 -47c-9 -3 -13 0 -13 10c0 13 5 25 16 36c17 17 81 75 192 173
c30 27 45 41 45 44c4 5 -36 11 -33 2c-3 -11 -14 -6 -28 -11c-46 -13 -54 -29 -113 -49c-75 -25 -123 -93 -206 -105c-13 -1 -49 9 -51 18c0 5 13 9 38 12c66 7 57 22 106 41z" /><glyph glyph-name="uni7D2F" unicode="&#x7D2F;" d="M701 135c-32 21 11 35 32 18c16 -13 87 -48 69 -99c-8 -22 -120 -34 -155 -32c16 37 93 71 54 113zM444 213c-34 5 -52 -36 -81 -19c-10 24 -16 66 16 70c12 -4 106 103 94 115c1 5 -51 -11 -57 -7c-22 17 -31 36 -73 49c-35 11 -59 32 -33 64c25 32 135 68 131 123
c-3 40 32 2 45 0c5 0 15 3 30 8c42 15 67 14 75 -1c3 -7 1 -14 -6 -20c-4 -11 -82 -40 -97 -81c-9 -24 -27 -48 -20 -72c84 11 162 134 162 214c-4 17 -23 25 -56 25c-69 0 -148 -41 -242 -116c-43 -34 -40 -47 -93 -47c-16 0 -26 4 -30 10c-10 18 8 14 29 20
c13 4 26 8 38 17c115 80 201 126 258 140c56 14 99 4 129 -30c22 -24 13 -78 -30 -162c-44 -86 -51 -106 -101 -161c-27 -30 -32 -46 -14 -47c7 0 56 -18 49 -33c5 -9 -51 -80 -49 -92c0 -7 5 -14 18 -19c50 -23 54 -59 42 -131c-9 -61 -37 -154 -91 -146
c-38 6 -124 10 -157 25c-23 10 -40 13 -48 13c-15 -5 -88 96 -85 112c7 36 52 -1 67 -9c24 12 82 40 95 51c11 25 4 80 46 72c14 -3 53 46 50 59c0 4 -4 6 -11 6zM394 460c16 49 -34 -3 -30 -10c5 -12 31 -12 30 10zM402 -66c91 -5 115 55 115 139c0 61 -62 -11 -90 -7
c-3 9 -104 -102 -95 -104c4 -29 31 -26 70 -28z" /><glyph glyph-name="uni7EA7" unicode="&#x7EA7;" d="M712 523c-7 -77 -50 -132 -75 -187c32 -10 102 -8 107 -46c6 -40 -4 -110 -24 -135c-33 -42 -31 -43 26 -56c45 -23 174 -49 153 -124c-17 -14 -71 -39 -107 -26c-40 15 -51 6 -22 37c36 39 -26 45 -62 52l-65 12c-12 -30 -113 -78 -154 -85c-29 -4 -65 57 -87 21
c-24 -40 -41 16 -39 47c3 62 38 84 57 141c23 70 60 125 77 202c-5 6 -43 -37 -51 -32c-22 4 -52 39 -42 74c2 9 8 13 16 13c55 21 153 111 212 139c40 2 85 4 80 -47zM640 494c14 49 -58 -18 -66 -28c-32 -37 -51 -36 -29 -81c10 -20 6 -45 2 -67c24 14 83 143 93 176z
M678 253c0 43 -32 27 -56 10c-16 -11 -43 -35 -82 -70c-22 -20 -38 -28 -47 -25c-18 7 -42 -41 -15 -46c17 -3 150 1 144 9c17 11 56 94 56 122zM510 31c77 49 -77 43 -76 6c-6 -13 36 -24 51 -21c5 1 13 7 25 15zM384 637c2 21 26 15 37 3c14 -16 12 -37 1 -69
c-13 -37 -72 -90 -102 -123c-2 -4 -1 -9 5 -12c59 -40 47 -49 15 -102c-15 -23 -28 -40 -38 -52c-15 -18 -15 -28 -1 -29c22 5 33 -43 38 -70c16 16 81 91 85 87c-57 -112 -53 -104 -165 -243c-31 -37 -46 -59 -46 -65c-13 -32 -52 -2 -41 32c17 50 76 116 88 173
c0 3 -3 4 -8 2c-19 -13 -48 43 -38 69c-4 5 75 118 72 122c-7 7 -39 -9 -95 -48c-30 -21 -51 -33 -63 -36s-20 1 -26 13c-11 21 1 40 29 64c59 49 228 212 253 284z" /><glyph glyph-name="uni7EBF" unicode="&#x7EBF;" d="M738 694c-9 23 15 24 50 17c52 -11 90 -50 104 -89c10 -26 -11 -40 -32 -30c-25 21 -48 60 -84 78c-22 11 -34 20 -38 24zM766 277c42 0 63 -33 40 -77c-3 -22 -38 -71 -30 -85c39 8 25 -118 42 -145c16 -26 20 -121 -16 -124c-29 -2 -82 94 -79 127c2 17 -12 66 -22 71
c-26 -16 -115 -67 -164 -59c43 43 107 86 137 138c9 45 -15 131 -30 161c0 5 -137 -70 -130 -72c-13 -15 -25 -14 -37 4c-16 25 -22 1 -27 -30c8 -50 -94 -187 -152 -234c-36 -17 -37 5 -53 38c-34 72 3 59 25 112c12 30 39 85 40 114c-52 -7 -81 61 -56 104c1 5 4 8 2 12
c-2 0 -19 -12 -52 -35c-53 -37 -82 -44 -89 -21c-21 75 -6 61 43 117c71 81 102 117 156 213c24 43 35 69 35 77c3 30 46 11 41 -17c-11 -57 -36 -88 -61 -136c-23 -44 -31 -63 -19 -60c7 2 22 -2 45 -12c87 -36 10 -98 -6 -156c31 -29 55 -42 31 -100c-9 -23 -9 -37 -8 -39
c49 31 74 99 112 141c17 12 100 151 96 175c-4 6 -68 -24 -75 -17c-13 -1 -61 47 -23 47c9 -4 99 51 96 60c4 -1 -24 178 -29 169c0 15 17 16 35 2c23 -18 42 -42 37 -83c-5 -38 -1 -41 34 -43c31 -1 56 -8 58 -30c-1 -4 -3 -6 -7 -6c-3 6 -48 -55 -46 -62
c7 -45 34 -54 103 -71c15 -3 40 -18 37 -34c6 6 -54 -43 -65 -51c-27 -17 -20 -57 -10 -96c5 -18 9 -27 15 -26c5 0 7 6 7 18c1 19 0 21 19 21zM620 437c-11 41 -50 -46 -51 -51c5 -2 -32 -61 -21 -64c3 -9 80 60 78 68c2 7 0 23 -6 47z" /><glyph glyph-name="uni7ECF" unicode="&#x7ECF;" d="M694 200c-2 -15 -13 -94 6 -93c32 -4 7 25 11 35c16 9 159 -51 162 -62c12 -9 11 -31 11 -52c-48 15 -172 3 -209 -14c-24 -18 -69 -7 -97 -24c-25 -15 -83 -32 -119 -44c-31 18 -42 122 13 119c7 0 16 6 26 17c9 8 73 91 100 127c-30 -2 -72 -15 -90 7
c-11 13 -15 24 -10 36c2 5 6 7 13 5c42 0 94 32 93 75c0 10 -4 14 -12 14c-57 -20 -129 -90 -173 -125c-50 -40 -48 -116 -78 -179c-21 -44 -17 -63 -39 -98c-37 -59 -67 31 -61 75c-2 15 45 51 15 69c-51 48 15 143 2 194c-39 11 -99 -41 -132 -37c-16 2 -11 52 0 64
c58 62 132 136 176 215c40 70 59 85 72 137c-3 25 19 10 30 -1c29 -28 13 -46 -11 -78c-12 -15 -79 -120 -84 -141c7 2 -52 -82 -45 -79c7 -4 67 -31 66 -44c18 -46 -20 -104 -20 -145c0 -13 5 -19 12 -19c21 -1 66 100 63 126c-6 55 53 71 65 112c6 20 16 29 26 30
c22 2 80 100 92 114c25 29 22 47 -21 53c-34 5 0 19 14 20c39 4 26 19 69 13c24 -4 52 -10 46 -31c-8 -9 -38 -57 -50 -76c15 -19 30 -44 49 -56c50 -5 65 53 132 26c57 -23 79 -46 19 -71c-44 -19 -64 -39 -107 -60s-43 -26 2 -47c50 -23 36 -33 1 -73
c-15 -17 -25 -27 -28 -34zM573 408c21 4 30 35 19 54c-1 7 -55 -67 -47 -67c1 -1 11 3 28 13z" /><glyph glyph-name="uni7EF4" unicode="&#x7EF4;" d="M257 122c9 16 22 48 -10 48c-48 0 -56 59 -29 106c31 55 41 63 -33 48c-45 -9 -61 -27 -61 16c0 40 12 40 41 70c19 20 148 187 157 215c-1 15 -34 30 9 30c47 0 79 -63 38 -93c-13 -9 -94 -117 -100 -133c-23 -27 64 -34 60 -57c5 -24 -79 -111 -35 -131
c35 -2 35 19 49 54c30 74 66 143 72 234c6 86 58 130 70 205c4 18 44 -20 42 -30c4 -4 -25 -62 -17 -66c70 19 105 99 179 73c57 -20 -71 -73 -74 -89c-21 -24 -50 -78 -54 -124c-4 -34 46 13 52 15c0 9 -14 33 -19 42c34 -5 66 -12 105 -10c50 1 75 -9 75 -30
c0 -14 -3 -16 -17 -16c-19 0 -54 -28 -46 -46c-2 -19 58 -32 57 -45c-3 -26 -56 -45 -49 -86c4 -27 -3 -29 24 -29c24 0 71 -14 72 -32c2 -35 -143 -100 -95 -162c14 -5 61 2 43 33c-12 54 24 18 37 5c28 -29 53 -44 74 -67c-2 -34 -32 -27 -77 -31
c-61 -5 -175 -26 -213 -48c-33 -19 -33 -38 -18 -84c12 -36 12 -56 -16 -48c-61 63 -65 104 -55 252c5 72 7 222 15 278c6 11 -15 59 0 71c17 33 17 90 38 125c79 129 -115 -72 -106 -75c-6 -29 -21 -140 -31 -167c-22 -62 1 -25 -29 -113c-15 -43 -33 -87 -55 -131
s-37 -66 -43 -66c-23 10 -54 59 -27 89zM634 420c-51 4 2 25 -16 43c-47 -6 -74 -42 -69 -97c27 -14 94 22 85 54zM602 320c-18 4 -73 12 -67 -20c-2 -12 -2 -36 4 -41c1 -5 69 59 63 61zM633 261c6 4 6 49 -2 46c-2 3 -94 -68 -75 -71c-2 -11 68 11 77 25zM596 134
c27 36 45 43 24 60c-8 2 -71 -17 -72 -22c-8 0 -2 -85 7 -78c5 0 20 12 41 40z" /><glyph glyph-name="uni8003" unicode="&#x8003;" d="M494 704c18 23 71 -23 79 -35c17 -27 95 -24 94 -66c0 -21 -63 -2 -79 -11c-21 -12 -45 -35 -43 -73c4 -64 11 -38 69 -19c44 14 54 21 76 50c18 24 15 27 53 27c28 0 35 5 41 -14c6 -20 27 -15 27 -42c0 -36 -75 -18 -91 -42c-12 -4 -230 -217 -192 -196
c4 -6 132 76 119 82c7 28 75 1 73 -13c-2 -21 -60 -52 -56 -78c2 -21 -31 -66 -26 -75c22 10 91 8 107 -7c23 -21 32 -51 31 -90c-1 -40 -38 -149 -72 -193c-18 -23 -161 -28 -197 -19c-21 17 -2 19 21 26c88 27 145 59 162 156c11 62 12 83 -34 58
c-42 -22 -66 -69 -119 -75c-17 -2 -34 54 -41 75c8 10 30 34 40 33c5 -7 43 62 34 66c-3 2 -12 -2 -27 -11c-27 -16 -46 -17 -57 -2c-11 14 -11 6 -26 -6c-13 -11 -35 -37 -68 -74c-113 -130 -154 -188 -195 -202c-13 11 -8 28 5 48c12 17 37 46 77 86
c87 88 167 180 238 279c25 35 39 53 42 54c9 1 9 22 0 22c-61 -24 -125 -71 -206 -125c-55 -37 -87 -54 -96 -52c-13 -3 -9 65 -1 72c28 27 63 21 95 42c38 25 58 50 93 79c26 21 32 38 34 74c-30 -15 -45 -14 -74 10c-41 33 -55 22 -6 45c25 11 86 42 106 62
c10 10 7 55 -4 60c-7 5 -9 10 -6 14z" /><glyph glyph-name="uni8005" unicode="&#x8005;" d="M471 505c-16 18 -78 49 -81 82c33 13 107 30 119 64c-7 7 12 31 9 40c-10 24 -74 99 14 58c34 -16 65 -24 65 -65c0 -46 114 -25 77 -89c-13 -22 -56 -7 -71 -27c-10 -4 -25 -67 -18 -83c28 -7 48 28 66 45c22 31 72 87 92 115c16 40 43 -6 60 -15
c-9 -13 -77 -77 -35 -74c26 1 143 -28 96 -56c-69 -19 -187 -43 -234 -72c-15 0 -99 -113 -110 -134c-6 -23 17 -37 38 -18c19 4 108 96 124 103c12 5 102 -19 105 -27c14 -54 -3 -261 -3 -312c0 -57 -8 -93 -18 -107c-23 -14 -57 10 -68 25c-28 37 -32 -5 -66 -10
c-29 -13 -72 -16 -96 -2c-22 21 -54 70 -38 122c5 48 12 148 -1 191c-95 -95 -163 -248 -271 -346c-49 -44 -75 -72 -85 -75c-22 -7 -22 2 -3 31c28 44 119 134 164 198l186 266c17 24 25 38 25 42c-70 -19 -196 -106 -250 -126c-48 -18 -45 -14 -65 29c-13 28 -2 43 30 42
c93 20 224 97 292 132c-1 8 -59 25 -73 13c-70 -25 26 36 24 40zM688 181c1 19 5 79 -2 85c-6 9 -69 -51 -80 -38c-11 2 -34 12 -50 10c8 -30 4 -110 55 -73c14 10 53 11 77 16zM684 85c4 70 -41 18 -83 20l-32 -4c-2 -23 -10 -88 1 -92c10 -16 68 40 82 29
c29 -4 31 14 32 47z" /><glyph glyph-name="uni8054" unicode="&#x8054;" d="M587 548c31 27 31 28 19 -18c-10 -36 -9 -51 -40 -49c-15 1 -37 35 -34 49c19 8 31 -3 55 18zM665 437c26 47 103 124 58 191c31 9 69 -4 69 -46c0 -18 -13 -67 -27 -68c-5 0 -7 -3 -7 -9s-6 -12 -17 -17c-11 2 -69 -62 -76 -51zM841 64c28 -17 27 -84 26 -131
c-67 -4 -79 20 -105 67c-12 24 -23 38 -32 44c-21 15 -23 42 -53 70c-23 -70 -91 -111 -149 -148c-29 -18 -80 -28 -108 -8c-12 1 -57 99 -71 99c-4 8 -106 -84 -109 -76c-14 -7 -43 56 -16 69c10 5 18 6 24 4c23 2 94 75 121 96c17 13 26 40 13 56c-2 3 -56 -12 -58 -18
c-9 -11 10 -54 -19 -48c-50 -11 -60 59 -73 92c33 85 37 178 78 257c29 56 33 70 -13 27l-31 -30c-49 2 -101 10 -126 31c-26 23 32 18 46 21c32 -8 136 66 161 78c14 7 43 51 63 46c31 -7 85 -7 88 -41c0 -9 -12 -21 -36 -31c-32 -14 -72 -56 -80 -86c0 -6 9 -9 25 -9
s70 -20 70 -32c8 2 -10 -196 21 -164c13 7 18 31 16 49c25 -1 113 35 120 56c6 18 61 17 70 32c11 18 86 -4 81 -14c13 -5 -61 -89 -53 -100c12 -17 99 -16 109 -40c1 -5 -110 -94 -115 -91c-11 0 -40 -53 -34 -65c3 -5 12 -8 25 -8c28 0 19 -14 43 -14c12 6 73 -42 81 -40z
M375 378c-18 -1 3 -38 7 -10c0 7 -2 10 -7 10zM662 358c-1 -9 15 -9 14 0c1 9 -15 9 -14 0zM626 312c-20 30 -60 -9 -84 -8c-32 -10 -82 -88 -64 -138c56 -1 74 13 103 53c35 49 50 79 45 93zM347 257c2 -26 56 12 22 18c-15 0 -22 -6 -22 -18zM568 19c11 14 55 81 44 103
c-29 4 -83 -38 -112 -28c-36 12 -19 -43 -28 -79c-1 -23 -4 -49 2 -62c7 -1 95 60 94 66z" /></font>
</defs>
</svg>
